<svg xmlns="http://www.w3.org/2000/svg" xmlns:xlink="http://www.w3.org/1999/xlink" width="1010.897" height="533.004" viewBox="0 0 1010.897 533.004">
  <defs>
    <clipPath id="clip-path">
      <rect id="Rectangle_204" data-name="Rectangle 204" width="1009" height="139" transform="translate(-1249 -1361.924)" fill="#c46565"/>
    </clipPath>
  </defs>
  <g id="Group_350" data-name="Group 350" transform="translate(11479.51 18600.002)">
    <rect id="Rectangle_203" data-name="Rectangle 203" width="1009" height="533" transform="translate(-11478.076 -18600)" fill="#ffd8c5"/>
    <path id="Path_641" data-name="Path 641" d="M1008.847,228.418c-428.587-125.413-521.035,76.042-1009,0C-1.964,215.255-.7,14.108-.153-24.36c488.965-135.46,571.447,138.881,1009,0C1007.012-9.2,1011,215.947,1008.847,228.418Z" transform="translate(-11478.417 -18325.641)" fill="#fff" opacity="0.67"/>
    <path id="Path_642" data-name="Path 642" d="M0,462.063c428.587-241.333,521.035,146.329,1009,0,1.812-25.33,0-486.423,0-486.423H0S-2.155,438.065,0,462.063Z" transform="translate(-11478.417 -18575.641)" fill="#fff" opacity="0.47"/>
    <g id="Mask_Group_75" data-name="Mask Group 75" transform="translate(-10229.076 -16844.074)" clip-path="url(#clip-path)">
      <g id="Слой_x0020_1" transform="translate(-1273.894 -1339.919)">
        <g id="_2332944874992" transform="translate(0 0)">
          <g id="Group_183" data-name="Group 183" transform="translate(91.818 85.687)">
            <path id="Path_643" data-name="Path 643" d="M-197.147,375.638v-.822h-.825v.822h-1.655v.824h1.655v-.824h.825v.824h1.655v.824h1.655v-1.649h2.481v-.822h.828v2.471h-2.483v.824h.828v.822h.828v-.822h.828v-.824h.825v.824h2.483v.822h4.136v-.822h-.828v-.824h-.828v-.824h-1.655v.824h-1.653v-1.649h-.828v-.822h-1.653v-.824h-4.136v.824h-1.655v.822Z" transform="translate(291.445 -366.577)" fill="#ffd8c5" fill-rule="evenodd"/>
            <path id="Path_644" data-name="Path 644" d="M-224.662,376.7h1.653v12.357h.828v-4.942h4.964v.822h1.653V383.29H-219.7v-1.649h-2.481v-.822h3.308v-.824h-3.308V375.05h-4.964v.825h2.483Z" transform="translate(254.441 -365.164)" fill="#ffd8c5" fill-rule="evenodd"/>
            <path id="Path_645" data-name="Path 645" d="M-236.305,376.346v.824h-2.481v.822h7.445V392h.828v.822h1.653V392h-1.653V374.7h-.828v1.649Z" transform="translate(238.786 -365.635)" fill="#ffd8c5" fill-rule="evenodd"/>
            <path id="Path_646" data-name="Path 646" d="M122.105,390.586h.828v-.824h.828v-.824h.828v-.824h.828v-.824h.825v-.822h.828v-.824h.828v-.825h.828v-9.062h-1.655v8.237h.828v.824h-.828v.825h-.828v.824h-.825v.822h-.828v.824h-.828v.824h-.828v.824h-.828Z" transform="translate(724.109 -364.221)" fill="#ffd8c5" fill-rule="evenodd"/>
            <path id="Path_647" data-name="Path 647" d="M-197.719,378.934v1.647h.828v.824h-6.617v1.646h.825v-.822h5.792v.822h.828v-2.471h-.828v-1.647h-.828v-.824H-200.2v-1.649h-.828v1.649h.828v.824Z" transform="translate(286.227 -363.279)" fill="#ffd8c5" fill-rule="evenodd"/>
            <path id="Path_648" data-name="Path 648" d="M136.217,383.171H138.7v-.824h.828v-.824h.825V380.7h-.825v-.822h2.481v-.824h-.828v-.824h2.481v-1.649h-.825v.824h-1.655v-.824h.828v-.822h-.828v.822h-.828v2.473h-.825v.824H138.7v.822h.828v.824H138.7v.824h-2.481Z" transform="translate(743.086 -364.221)" fill="#ffd8c5" fill-rule="evenodd"/>
            <path id="Path_649" data-name="Path 649" d="M-228.312,378.342v.824h.828v.824h4.134v-1.649h-4.962v-.822h-1.655v.822Z" transform="translate(250.646 -361.865)" fill="#ffd8c5" fill-rule="evenodd"/>
            <path id="Path_650" data-name="Path 650" d="M-229.59,376.579v.824h-1.654v.824h2.481v-1.648h-.827v-.824h-2.482v.824h2.482Zm-4.963,4.12h.827v-1.648h2.482v-.824h-3.309V380.7Z" transform="translate(244.479 -364.222)" fill="#ffd8c5" fill-rule="evenodd"/>
            <path id="Path_651" data-name="Path 651" d="M-194.081,371.639h-.828v-.822h-.825v1.647h-.828v-.824h-.828v-.822h-.828v.822h.828v.824h.828v.824h1.653v.824h.828Z" transform="translate(293.343 -370.817)" fill="#ffd8c5" fill-rule="evenodd"/>
            <path id="Path_652" data-name="Path 652" d="M-202.328,376.581V374.11h2.481v.824h.828v-.824h-.828v-.824h-2.481v.824h-.828v2.471Z" transform="translate(286.701 -367.52)" fill="#ffd8c5" fill-rule="evenodd"/>
            <path id="Path_653" data-name="Path 653" d="M-228.3,377.638v-.824h-.827v.824Zm-3.309,2.472v-1.648h2.482v-.824h-3.309v2.472Z" transform="translate(247.326 -362.808)" fill="#ffd8c5" fill-rule="evenodd"/>
            <path id="Path_654" data-name="Path 654" d="M-197.024,374.228h-2.483v-1.647h-.825v1.647h.825v.824h2.483Z" transform="translate(290.497 -368.461)" fill="#ffd8c5" fill-rule="evenodd"/>
            <path id="Path_655" data-name="Path 655" d="M-236.9,378.934v-1.649h1.653v-.824h-2.481v2.473Z" transform="translate(240.209 -363.279)" fill="#ffd8c5" fill-rule="evenodd"/>
            <path id="Path_656" data-name="Path 656" d="M-196.915,374.817v-2.471h-.828v-.824h-.828v1.649h.828v1.647Z" transform="translate(292.868 -369.875)" fill="#ffd8c5" fill-rule="evenodd"/>
            <path id="Path_657" data-name="Path 657" d="M-204.2,380.342h-2.483v.822h1.655v.824h.828Z" transform="translate(281.956 -358.096)" fill="#ffd8c5" fill-rule="evenodd"/>
            <path id="Path_658" data-name="Path 658" d="M-191.5,373.875v-.822h-1.655v-.824h-.828v1.647Z" transform="translate(299.035 -368.933)" fill="#ffd8c5" fill-rule="evenodd"/>
            <path id="Path_659" data-name="Path 659" d="M-199.737,377.521v-1.646h-.828v-.825h-.828v.825h.828v.824h-.828v.822Z" transform="translate(289.073 -365.164)" fill="#ffd8c5" fill-rule="evenodd"/>
            <path id="Path_660" data-name="Path 660" d="M-193.387,371.875h-1.655v.824h1.655Z" transform="translate(297.613 -369.404)" fill="#ffd8c5" fill-rule="evenodd"/>
          </g>
          <g id="Group_184" data-name="Group 184" transform="translate(55.42 41.196)">
            <path id="Path_661" data-name="Path 661" d="M110.816,400.481v2.473h.828v.824h25.643v-.824h.828v-.824h.828v-.824h.828v-.824h.828v-.822h.825v-.824h.828v-.824h.828v-.824h-.828v-8.237h1.655v8.237h1.653v-.822h1.655v-.824h4.136v-.824h3.309v-.824h2.481v-.822h4.136v-.824h8.272v.824h-1.655v3.3h2.483v-.824h2.481v-.824h.828v-.824h-.828v-.822h.828v-.824h.825V389.77h.828v-.822h.828v.822h1.653v1.649h-2.481v.824h.828v.824h12.409v.822h4.962V374.118h.828v-.824H192.71v-.824h-1.655v-.824h.828v-.822h-1.655V370H189.4v-.824h-.825V370h-.828v.824h-1.655v1.647h-1.653v.824h-7.445v-1.649H174.51v-.822h-2.481V370H171.2v-1.649h-.825v-.824h-.828V366.7h-.828v-.824h-.828v.824H166.24v.822h-.828v1.649h-.828v1.649h-3.308v.822H158.8v1.649h-.828v-.824h-5.792v-.824h-.825v-.822h-.828V370h-.828v-.824H148.04V370h-.825v.824h-.828v1.647h-3.309v1.649h.828v10.711H142.25V387.3h-.828v2.471H140.6v5.769h-.828v-.824h-2.483v-.824h-2.481v-.822H131.5v-.824h-2.481v-.824h-3.311v-.824h-1.653v-1.646h-.828v-.824H122.4V387.3h-.825v-.824h-3.309v.824h-.828v.825h-.828v.824h-.828v.822h-.828v.824h-.825v.824h-1.655v7.415h-.828v1.646Z" transform="translate(745.326 -332.922)" fill="#ffd8c5" fill-rule="evenodd"/>
            <path id="Path_662" data-name="Path 662" d="M-186.2,407.793v-.824h.827v-.824h.827V404.5h-.827v.824h-1.654V402.85h.827v-.824h2.481v.824h.827v.824h.827v-3.3h-.827v-.824h.827v-.824h.827v.824h.827v.824h.827v1.648h4.136v.824h.827V401.2h-.827v-1.648h-.827v-1.648h.827v-1.648h.827v.824h.827v.824h.827v-2.472l-.827-.824-.827-.824-.827-.824-.827-.824-.827-.824-1.654-2.472-.827-.824-.827-.824-2.481-3.3-1.654-2.472-.827-1.648-.827-1.648-.827-1.648-.827-1.648-.827-2.472-.827-1.648-.827-3.3-.827-4.119-.827-4.944h-.827v-5.768h-.827v-.824h-.827v4.119h-.827l-.827,3.3-.827,3.3-.827,3.3-.827,2.472-.827,2.472-.827,2.472-1.654,4.12-.827,1.648-.827,1.648-.827.824-.827,1.648-.827.824-5.79.824V383.9h.827v-1.648h.827V380.6h-.827v.824h-.827v1.648h-.827v1.648h-.827v.824h-.827V387.2h-.827v.824h1.654v.824h1.654v30.484h.827v.824h1.654v2.472h12.408V421.8h1.654v-3.3h2.481v-1.648h1.654v-.824h3.309v-1.648h6.617v-.824h-.827v-1.648h-2.481v-.824h-.827v-1.648h.827v-.824h.827v-1.648h-1.654v1.648h-.827v.824h-.827v-1.648h.827ZM-209.36,380.6v-1.648h-.827V380.6Z" transform="translate(306.969 -351.767)" fill="#ffd8c5" fill-rule="evenodd"/>
            <path id="Path_663" data-name="Path 663" d="M78.008,407.318H80.49v.824h.827v.822h.827v.824h.827v.824H86.28v1.646h.827v.824h.827v.824h.827v.824h.827V412.26h.827v-3.3h4.136v3.3h.827V362h-.827v-4.944h-.827v.824H92.071v2.473H92.9v-.824h.827v3.3H92.9v.824h-.827v.822h-.827v.824h-.827v1.649h-.827v3.3H87.107v-.824H86.28v-.824h-.827v-.822h-.827v-.824H83.8v-.824h-.827V365.3h-.827v-.824H80.49v-.822H78.835v.822h-.827v6.593h.827v1.647h-.827Z" transform="translate(701.206 -344.702)" fill="#ffd8c5" fill-rule="evenodd"/>
            <path id="Path_664" data-name="Path 664" d="M-131.542,393.308h2.481v-7.415h.828v7.415h4.136v.824h1.655v.822h1.653v.824h.828v.825h.828v.824h.828v1.646h1.653v-.824h.828v-.822H-115V396.6h.828v-4.12H-115v-1.649h1.653v6.593h.828v.822h1.655v-4.942h-.828v-.824h-.828v-.824h.828v-.824h1.653v-.822h1.655v-4.12h.828v-17.3h.825v-.822h-.825v-.824h-.828v-.824h-.828v-.824h-.828v-.822h-.825v.822h-.828v-.822h-.828v.822h-1.653v-.822H-115v-.824h-1.655v-.824h-1.653V362h-.828v-2.471h-.828V362h-3.309v.824h-.828v.824h-.828v1.647h-1.653v1.649h-2.483v.824h-2.481Z" transform="translate(419.405 -341.403)" fill="#ffd8c5" fill-rule="evenodd"/>
            <path id="Path_665" data-name="Path 665" d="M-78.625,395.427h5.79V394.6H-68.7v-.824h4.136V369.061h.827v-.822h-.827V362.47h-.827v.824h-2.482v-.824h-2.481v-.824h-.827v-.822h-.827v-1.649h-.827v1.649h-1.654v.822h-.827v2.473h-.827v.824H-77.8v2.471h-.827Z" transform="translate(490.567 -341.874)" fill="#ffd8c5" fill-rule="evenodd"/>
            <path id="Path_666" data-name="Path 666" d="M27.208,392.6h1.654v-.822h.827v-.824h.827v-4.12h.827V384.36h.827v2.473H33v.824h.827v.822H33v.824h.827v.824h.827v.824h.827v3.3h.827v7.415h4.136v-3.3h.827v-2.473h-.827V363.763h-.827v-.824H37.962v-1.647H33v.824H29.69v.822h-.827v1.649h-.827v.824h-.827Z" transform="translate(632.891 -339.047)" fill="#ffd8c5" fill-rule="evenodd"/>
            <path id="Path_667" data-name="Path 667" d="M-165.056,384.943h1.655v1.649h.828v1.646h4.962v-.824h1.655v.824h2.481v-.824h.828v-.822h.828v-.824h1.653v-.825h1.655v-.824h1.653V383.3h3.311v-.824h4.134v-8.24h-.825v-1.649h-.828v.824h-1.655v-.824h-4.136v-.822h-1.653v.822h-.828v-.822h-.828v-.824h-.828v-.824h-.825v-.824h-.828v-1.646h-.828v1.646h-1.653v.824h-4.136v.824h-.828v1.647h-.828v1.649h-.828V376.7h-.825v1.649h-.828V380h-.828v2.473h-.828Z" transform="translate(374.336 -330.567)" fill="#ffd8c5" fill-rule="evenodd"/>
            <path id="Path_668" data-name="Path 668" d="M-74.088,390.013V365.294h-.827v-.822h-.827v-.824h-.827v-.824H-77.4V362h-1.654v-.824h-.827V362h-.827v-2.471h-.827V362h-2.481v.824h-1.654v.824H-86.5v.824h-.827v.822h-.827v15.655H-86.5v.824h.827v.824h.827v.822h1.654v.824h.827v.824h.827v.824h.827v.822h1.654v.824H-77.4v.824h.827v.824h.827v.825Z" transform="translate(477.758 -341.403)" fill="#ffd8c5" fill-rule="evenodd"/>
            <path id="Path_669" data-name="Path 669" d="M13.1,392.479h.827v-1.646h.827v-3.3H27.986V369.409h-.827v-2.471H25.5v.824H22.2v-.824h-.827v-.824h-.827v-.824h-.827v-.822h-.827v1.647H17.233v1.649h-.827v1.647h-.827v.824h-.827v.824h-.827v.824H13.1v1.647h.827v3.3H13.1Z" transform="translate(613.914 -334.807)" fill="#ffd8c5" fill-rule="evenodd"/>
            <path id="Path_670" data-name="Path 670" d="M-150.239,372.11v7.418h5.789v.822h2.483v.824h3.308V382h.828v.824h1.653v.822h1.655v.824h.825v.824h.828v.824h.828v.824h.828v.822h.828v.824h.825v.824h.828v-.824h2.483v-.824h.825v.824h1.655v-3.3h.828v-.824h1.653v-.824h1.655v-.822h.828v-3.3h-.828V378.7h.828v-.824h-4.136v.824h-.828v.824h-10.753V372.11h-2.483v-.822h-.825v-.824h-.828v.824h-1.655v.822h-.828v1.649H-146.1v-.824h-2.481v-.824Z" transform="translate(394.261 -326.798)" fill="#ffd8c5" fill-rule="evenodd"/>
            <path id="Path_671" data-name="Path 671" d="M-67.689,383.179h2.482v-.824h10.753v-.822h8.272v-.824h.827v-.824h.827v-.824h.827v-.824h.827v-.822H-43.7v-1.649h.827v-.824H-43.7v-3.3h-.827V370h-.827v-1.649h-.827v-.824h-.827V366.7h-1.654v-.824h-1.654v.824h-.827v.822h-.827v.824H-52.8V370h-.827v1.647h-.827v2.473h-.827v1.646h.827v.824h-.827v.824h-.827v1.647H-67.689Z" transform="translate(505.274 -332.922)" fill="#ffd8c5" fill-rule="evenodd"/>
            <path id="Path_672" data-name="Path 672" d="M-232.083,377.879v1.649h1.653v.822h5.792V378.7h.825v2.471h8.272v1.649h4.964V382h.825v-.824h.828V372.11h-.828v-1.647h-2.481v.824h-1.653v.822h-2.483v.824h-2.481v.824h-2.481v.824h-2.483v.824h-2.481v.822h-1.655v.824h-2.481v.824Z" transform="translate(284.198 -326.798)" fill="#ffd8c5" fill-rule="evenodd"/>
            <path id="Path_673" data-name="Path 673" d="M-21.755,379.882v-4.944h-.827v-.822h-.827v-.824h-.827v-.824h-1.654v-.824h-.827v-.822h-.827v-1.649h-.827v-.824H-29.2v.824h-.827V370h-.827v.824h-.827v1.646h-.827v.824h-1.654v.824h-1.654v.822h-.827v1.649h.827v2.471h8.272v.824Z" transform="translate(547.022 -329.625)" fill="#ffd8c5" fill-rule="evenodd"/>
            <path id="Path_674" data-name="Path 674" d="M-242.667,378.463h2.481v4.117h9.1v-5.766h-9.1v.824h-2.481Z" transform="translate(269.965 -318.317)" fill="#ffd8c5" fill-rule="evenodd"/>
            <path id="Path_675" data-name="Path 675" d="M-233.6,392V378.817h4.964v-.824h-2.483v-.822H-233.6V374.7h-1.653V392Z" transform="translate(279.929 -321.145)" fill="#ffd8c5" fill-rule="evenodd"/>
            <path id="Path_676" data-name="Path 676" d="M-225.261,390.586h1.655v-2.473h-.828V375.756h-1.653v11.533h.825Z" transform="translate(292.263 -319.73)" fill="#ffd8c5" fill-rule="evenodd"/>
            <path id="Path_677" data-name="Path 677" d="M-228.775,378.581h4.136v.824h4.962v-.824h-1.653v-.824h-4.136v-.824h-3.309v-.824h-3.309v1.649h3.309Z" transform="translate(284.198 -319.26)" fill="#ffd8c5" fill-rule="evenodd"/>
            <path id="Path_678" data-name="Path 678" d="M139.039,379.521h.825v.824H144v.822h3.308v-.822h-.825v-.824h-.828V378.7H144v-.824h-4.962Z" transform="translate(783.28 -316.905)" fill="#ffd8c5" fill-rule="evenodd"/>
            <path id="Path_679" data-name="Path 679" d="M-244.783,378.7v9.064h1.653v-9.888h-.828v.824Z" transform="translate(267.119 -316.905)" fill="#ffd8c5" fill-rule="evenodd"/>
            <path id="Path_680" data-name="Path 680" d="M-225.466,379.167v-.824h-1.655v-.822h-4.962v1.647Z" transform="translate(284.198 -317.375)" fill="#ffd8c5" fill-rule="evenodd"/>
            <path id="Path_681" data-name="Path 681" d="M-199.981,375.521v.825h.828v1.646h.828v-.822h.828v-.824h1.653v.824h2.483v-.824h-1.655v-.825h-1.655V374.7h-.825v.824Z" transform="translate(327.369 -321.145)" fill="#ffd8c5" fill-rule="evenodd"/>
            <path id="Path_682" data-name="Path 682" d="M-197.158,372.346v2.471h2.481V374h.828v-.824h.825v-.824h-1.653v-.824h-.828v1.649h-.828v-.824Z" transform="translate(331.165 -325.385)" fill="#ffd8c5" fill-rule="evenodd"/>
            <path id="Path_683" data-name="Path 683" d="M-230.064,378.814v-1.647H-234.2v1.647Z" transform="translate(281.351 -317.846)" fill="#ffd8c5" fill-rule="evenodd"/>
            <path id="Path_684" data-name="Path 684" d="M-233.239,378.463v-1.649h-4.136v1.649Z" transform="translate(277.082 -318.317)" fill="#ffd8c5" fill-rule="evenodd"/>
            <path id="Path_685" data-name="Path 685" d="M-222.547,379.167h2.483V377.52h-4.964v.822h2.481Z" transform="translate(293.686 -317.375)" fill="#ffd8c5" fill-rule="evenodd"/>
            <path id="Path_686" data-name="Path 686" d="M-186.32,377.287v.824h.828v.822h1.655v-.822h-1.655v-.824h-.828v-.824h-1.653v-.824h-.828v-.822h-.828v-.824h-.828v.824h.828v.822h.828v.824h.828v.824Z" transform="translate(340.178 -322.086)" fill="#ffd8c5" fill-rule="evenodd"/>
            <path id="Path_687" data-name="Path 687" d="M-193.631,372.7v.824h1.655v.822h1.653V372.7h-1.653v-.824h-.828v.824Z" transform="translate(335.908 -324.913)" fill="#ffd8c5" fill-rule="evenodd"/>
            <path id="Path_688" data-name="Path 688" d="M134.928,364.938H134.1v.822h2.481v-1.647h-1.653Z" transform="translate(776.638 -335.278)" fill="#ffd8c5" fill-rule="evenodd"/>
            <path id="Path_689" data-name="Path 689" d="M-252.654,381.4h-1.655v1.649h1.655Z" transform="translate(254.309 -312.193)" fill="#ffd8c5" fill-rule="evenodd"/>
            <path id="Path_690" data-name="Path 690" d="M-33.47,368.349h.827v-2.471h-.827Z" transform="translate(551.292 -332.922)" fill="#ffd8c5" fill-rule="evenodd"/>
            <path id="Path_691" data-name="Path 691" d="M-193.51,370.817h-.827v.824h.827Zm.827,1.648v-.824h-.827v.824Z" transform="translate(334.959 -326.326)" fill="#ffd8c5" fill-rule="evenodd"/>
            <path id="Path_692" data-name="Path 692" d="M-222.559,378.7h.828v-.824h-.828Z" transform="translate(297.006 -316.905)" fill="#ffd8c5" fill-rule="evenodd"/>
            <path id="Path_693" data-name="Path 693" d="M-153.292,369.877v-.824h-.828v.824Z" transform="translate(389.042 -328.682)" fill="#ffd8c5" fill-rule="evenodd"/>
          </g>
          <g id="Group_185" data-name="Group 185" transform="translate(96.78 35.428)">
            <path id="Path_694" data-name="Path 694" d="M145.408,414.387h-4.136v-.824h-3.309v-.824h-3.309v-.824H133v-.824h-.827v-.824h-.827v-.824h-.827v-.824h-.827V407.8h-.827v-.824h-.827v-.824h-.827v-.824h-.827V404.5h-.827v-1.648h-.827V401.2H123.9v-5.767h-.827v-5.768h-.827v-6.591h-.827v-5.767h-.827v-6.591h-.827v-4.943h-1.654v-.824h-.827V363.3h-.827v-1.648h-.827v-.824H114.8v-.824h-.827v-5.767h.827v-.824h.827v-.824h.827v-1.648h.827V349.3H115.63v.824h-2.481V349.3h-1.654v.824h-.827v2.472h-.827v.824h.827v.824h.827v1.648h-.827v.824h.827v1.648h.827v.824h-.827v1.648h-.827v1.648h-.827v1.648h-.827v.824h-1.654v3.3h.827V369.9h-.827v2.472h-.827v1.648h.827v1.648h.827v.824h-.827V383.9h-.827v4.943H105.7v4.12h.827v2.472H105.7v.824h-.827V401.2h.827v.824h.827v.824H105.7V404.5h-.827v.824h-.827v.824h-1.654v.824h-.827v-.824h-5.79v-.824H89.16V404.5H80.888v-.824H70.961v-.824H67.653v-.824H65.171V401.2H63.517v-.824H61.035v-.824h-.827v-2.472h-.827v-1.648h-.827v-.824h-.827v-.824H56.9v-.824h-.827v-.824h-.827v-.824H53.59v-.824H51.936v-.824H48.627v.824H46.973v.824H45.319v.824h-.827v.824h-.827v.824h-.827v.824H42.01v.824h-.827v.824h-.827v1.648h-.827v2.472H37.047v.824H34.565v.824H32.084v.824H30.429v-.824h.827V401.2h.827v-.824h.827v-.824h-.827v.824h-.827v.824h-.827v.824H29.6v.824h-.827v.824H20.5v.824H9.749v.824H4.786v.824H-1.831v.824H-8.449v.824h-4.136v.824h-5.79v.824h-1.654v-.824h-1.654V407.8h-.827v-.824h-1.654v-.824h-.827v-.824h-.827V404.5h-.827v-.824H-28.3v-.824h-.827v-.824h-.827V401.2H-31.61v-.824h-1.654v-.824h-.827v-.824h-.827v-.824h-.827v-.824H-37.4v-.824h-.827v-.824h-.827v-.824h-1.654v-.824h-1.654v-.824h-.827v-.824h-.827v-.824h-1.654v-.824h-2.482v-1.648h.827v-.824h-.827V387.2h-.827v-.824h-5.79V383.9H-55.6v-3.3h-.827v-.824h-.827v-.824h-.827v-.824h-1.654v-.824h-2.482v-.824h-.827v-.824h-.827v-3.3h.827v-1.648h-.827v-.824H-64.7v-.824h-1.654v1.648h-.827v5.768h-.827v.824h-.827v.824h-1.654v.824h-1.654v.824h-.827v.824H-73.8v4.12h-.827v1.648h-.827v.824h-.827v.824h-4.136v.824h-.827v3.3h.827v.824h-3.309v.824h-.827v.824h-.827v.824H-86.2v.824h-.827v.824h-.827v.824h-1.654v.824h-.827v.824h-.827v.824h-.827v.824h-.827v.824h-.827v.824h-.827v.824H-95.3v.824h-.827v.824h-1.654v.824h-.827v.824h-.827v.824h-.827v.824h-.827v.824h-.827v.824h-.827v.824h-.827v.824h-.827v.824h-1.654v.824h-.827v.824h-.827v-4.944h-3.309v-3.3h.827v-.824h.827V404.5h-1.654v-.824h-1.654v-.824h-.827v-3.3h-.827v-1.648h-.827v-.824h-.827v-2.472h-.827v2.472h-.827v.824h-.827v1.648h-.827v4.119h-1.654v.824H-122.6v.824h-.827v.824h.827v.824h.827v5.767h.827v.824h.827v.824h.827v2.472h2.482v.824h24.816v.824h9.1v1.648h.827v2.472H-94.476V421.8h-2.482v-.824h-.827v1.648h.827v.824h.827v.824h.827v.824h1.654v.824h17.371V425.1h3.309v-.824h4.136v-.824h3.309v-.824h3.309V421.8h2.481v-.824h2.482v-.824h3.309v-.824h4.136v-.824H-46.5v-.824h4.136v-.824h5.79v-.824h3.309v-.824h3.309v-.824h5.79v-.824h5.79v-.824h3.309v-.824h5.79v-.824h6.617v-.824H8.923v-.824h7.445v-.824H27.121V407.8h.827v-.824h.827v-.824H29.6v-.824h.827V404.5h1.654v-.824h5.79v.824h2.481v.824H42.01v.824h.827v.824h.827v.824h.827v1.648h.827v.824h.827v.824h.827v.824H47.8v.824h.827v.824h.827v.824h1.655v.824H48.628v-.824H47.8v-.824H46.146v-.824h-.827v-.824h-.827v-.824h-.827v-.824H42.01v-.824H40.356v-.824h-5.79v.824H32.084v.824h-.827v.824H29.6v.824h-.827v.824h-.827v.824h-.827v.824H11.4v.824H-.177v.824H-6.794v.824h-5.79v.824h-5.79v.824h-4.963v.824H-28.3v.824H-31.61v.824h-4.136v.824h-4.963v.824h-3.309v.824h-5.79v.824H-52.29v.824H-55.6v.824H156.162V425.1h-2.481v-.824h-4.136v-.824h-4.963v-.824H142.1V421.8h-5.79v-.824H133v-.824h-4.963v-.824h-4.963v-.824h-4.963v-.824h-4.136v-.824h-9.1v-.824h-4.136v-.824H89.987v-.824H80.061v-.824H72.616v-.824h-.827v-.824h-.827v-.824H69.307v-.824H67.653v-.824H66v-.824h-5.79v.824H58.554v.824H56.9v.824H55.245v.824h-.827v.824h-.827v.824H51.936v.824h-.827v-.824h.827v-.824h.827v-1.648h.827v-.824h.827v-.824h.827v-.824h.827V407.8H56.9v-1.648h.827v-.824h1.654V404.5H62.69v-.824h5.79v.824h1.654v.824h.827v.824h.827v.824h.827v1.648h6.617v.824H94.95v.824h4.963v.824h9.1v.824h5.79v.824h4.136v.824H123.9v.824h4.963v.824h5.79v.824h2.481v.824h5.79v.824h2.482v.824h4.136v.824h3.309v.824h4.136v.824h2.481v.824h4.136v.824h3.309v.824h3.309v.824h4.136v.824h2.482v.824h17.371V425.1h1.654v-.824h.827v-.824h.827v-.824h.827v-1.648h-1.655v.824h-2.481v.824h-20.68V421.8H168.57v-.824h-2.482v-.824h-4.963v-.824h-2.481v-.824h-3.309v-.824h-2.482v-.824h-2.481v-.824h-2.482v-.824h-2.482v-.824Zm-186.945,0h-2.481v.824h-3.309v.824h-3.309v.824H-52.29v.824H-55.6v.824H-58.08v.824h-3.309v.824h-4.136v.824h-2.481v.824H-73.8v.824h-2.481v-1.648h.827v-2.472h-.827v-.824h6.617v-1.648h-2.481v-.824h4.963v-.824h7.445v-.824h9.1v-.824H-37.4v.824h-4.136v.824Zm163.784-4.944h.827v.824h-.827Zm-4.963-15.654h1.654v1.648h-1.654Zm.827-2.472h-1.654v-.824h1.654v.824h.827v1.648h-2.482v-.824h1.654Zm-.827-2.472h1.654v.824h-1.654Zm0-1.648h.827v.824h-.827Zm-.827-1.648h2.482v.824h-2.482Zm0-1.648h1.654v.824h-1.654Zm0-7.415h.827v1.648h.827v.824h.827v4.12h-2.482Zm-2.481,6.591h-.827v-8.239h.827v.824h.827v6.591h-.827v.824Zm-4.963-7.415h.827v-.824h.827v8.239h-.827v-.824h-.827v-6.591Z" transform="translate(388.957 -349.297)" fill="#f88d57" fill-rule="evenodd"/>
            <path id="Path_695" data-name="Path 695" d="M92.825,400.373h5.79v-.825h4.136v-.824h1.654V397.9h1.654v-.824h2.481v-1.649h2.482v-9.062H110.2v-.824h-.827V363.3h-.827v-.824h-.827v-.824H106.06v-.822h-2.482V360h-.827v-.824H101.1v-2.471h-.827v2.471H98.615V360h-.827v2.471h-.827v.824h-.827v-4.12h-.827v5.766h-.827v20.6h-.827v.824h-.827Z" transform="translate(679.771 -339.403)" fill="#ffa375" fill-rule="evenodd"/>
            <path id="Path_696" data-name="Path 696" d="M-204.117,392.833h.828v-.824h.828v-.824h.825v.824h.828V401.9h.828v3.3h.828v.822h1.653v-3.3h-1.653V401.9h-.828V371.412h-1.655v-.824h-2.481v-.824H-206.6v-4.12h-.828v-.824h-3.308v1.649h-.828v.824h-.828v.824h.828v1.647h-1.653v.824h-4.136v.824h-1.655v.824h-1.655v1.647h.828v1.649h-.828v4.117h.828v9.064h-.828v.825h-.825v.824h-2.483v.822h9.1v-1.646h.828v.824h.828v.822h-1.655v.824h3.309v-.824h2.481v.824h-1.653v8.24h.828v-5.766h.825v-.824h3.311v.824h.825v.822h.828v-2.471h-1.653v-1.649h1.653Z" transform="translate(253.749 -328.568)" fill="#ffa375" fill-rule="evenodd"/>
            <path id="Path_697" data-name="Path 697" d="M167.431,396.713v-23.07h-1.655v-.824h-1.653v-.824h-5.792v-.824h-1.653v20.6h.825v.824h.828v.822h2.481v3.3Z" transform="translate(765.641 -320.088)" fill="#ffa375" fill-rule="evenodd"/>
            <path id="Path_698" data-name="Path 698" d="M148.211,390h1.655v.824h7.445v-7.415h.825V372.7h-.825v-.824h-.828v-.824h-.828v-.824H154v-.822h-4.962v3.3h-.828Z" transform="translate(754.254 -322.442)" fill="#ffa375" fill-rule="evenodd"/>
            <path id="Path_699" data-name="Path 699" d="M27.208,379.409v5.769h.827V386H29.69v.822h.827v.824h.827v.824H33v.824h.827v.822h.827v.824h1.654v.825h.827v.824h1.654v.822h1.654v.824H42.1v.824h4.136v-.824h.827v-4.12H44.579V389.3H40.443v-.824H36.307v-7.415H35.48v-3.3h-.827v-.824h-.827v-.824H33v-.824h.827v-.822H33v-.824h-.827v-2.473h-.827v2.473h-.827v4.12H29.69v.824h-.827v.822Z" transform="translate(591.531 -320.088)" fill="#ffd8c5" fill-rule="evenodd"/>
            <path id="Path_700" data-name="Path 700" d="M104.831,387.761h1.655v-2.473h1.653v2.473h14.889v-.824H122.2v-2.473h-.825v.824h-.828v.824h-.828v-1.649h.828v-.822h-.828v-.824h-.828v.824h-.825v.822h.825v1.649h-.825v-.824h-.828v-1.646h-.828v-.824h.828v-.824h-1.655v.824h-.825v.824h.825v1.646h-1.653v-1.646h-1.655v-3.3h-.828v.822h-.825v2.473h-.828v.822h-1.655v-1.646h-.828v-1.649h-.825v-.822h-.828v-2.473H104v1.649h.828v.824H104v.822h-.825v.824h-.828v2.471h2.481Z" transform="translate(692.581 -311.136)" fill="#ffd8c5" fill-rule="evenodd"/>
            <path id="Path_701" data-name="Path 701" d="M96.949,377.638H95.294v11.535h4.963V376.814H96.949Z" transform="translate(683.093 -312.549)" fill="#ffd8c5" fill-rule="evenodd"/>
            <path id="Path_702" data-name="Path 702" d="M81.183,380.932v1.646h.827v.824h.827v.824h.827v.824h.827v.824H95.245v-.824h-.827v-2.473h-.827v-.822h-.827v.822H90.282v-3.3H86.146v3.3h-.827v2.473h-.827v-.824h-.827V383.4h-.827v-.824H82.01v-1.646Z" transform="translate(664.116 -309.252)" fill="#ffd8c5" fill-rule="evenodd"/>
            <path id="Path_703" data-name="Path 703" d="M93.883,388.7h2.482V377.167H93.883Z" transform="translate(681.195 -312.077)" fill="#ffd8c5" fill-rule="evenodd"/>
            <path id="Path_704" data-name="Path 704" d="M102.009,391.058V375.4h-.828v.824H99.528v4.12h.827v10.711Z" transform="translate(688.785 -314.433)" fill="#ffd8c5" fill-rule="evenodd"/>
            <path id="Path_705" data-name="Path 705" d="M92.472,388.7h2.482V377.167H93.3v9.886h-.827Z" transform="translate(679.297 -312.077)" fill="#ffd8c5" fill-rule="evenodd"/>
            <path id="Path_706" data-name="Path 706" d="M98.117,389.173h1.654v-9.064h-.827v-3.3h-.827Z" transform="translate(686.888 -312.549)" fill="#ffd8c5" fill-rule="evenodd"/>
            <path id="Path_707" data-name="Path 707" d="M-199.737,377.992h.828v.824h2.481v-.824h.828v-.822h-.828v.822h-.828v-1.646h-.828v-.825h-1.653V374.7h-1.655v.824h.828v.825h.828Z" transform="translate(284.112 -315.376)" fill="#ffd8c5" fill-rule="evenodd"/>
            <path id="Path_708" data-name="Path 708" d="M-124.486,379.526h1.653v.822h.828v-.822h-.828v-6.593h-1.653v1.649h.828v4.12h-.828Z" transform="translate(387.534 -317.732)" fill="#ffd8c5" fill-rule="evenodd"/>
            <path id="Path_709" data-name="Path 709" d="M-234.187,377.757v-1.649h-2.483v1.649Z" transform="translate(236.67 -313.492)" fill="#ffd8c5" fill-rule="evenodd"/>
            <path id="Path_710" data-name="Path 710" d="M-233.142,374.463v.824h2.483v-1.649h-.828v.824Z" transform="translate(241.414 -316.789)" fill="#ffd8c5" fill-rule="evenodd"/>
            <path id="Path_711" data-name="Path 711" d="M-201.5,375.756h-1.655V377.4h.828v-.824h.828Z" transform="translate(281.739 -313.962)" fill="#ffd8c5" fill-rule="evenodd"/>
            <path id="Path_712" data-name="Path 712" d="M-98.734,354.121h.827v-1.649h-.827Z" transform="translate(422.166 -345.057)" fill="#ffd8c5" fill-rule="evenodd"/>
            <path id="Path_713" data-name="Path 713" d="M-99.086,357.528h1.654v-.822h-1.654Z" transform="translate(421.691 -339.403)" fill="#ffd8c5" fill-rule="evenodd"/>
          </g>
          <g id="Group_186" data-name="Group 186">
            <path id="Path_714" data-name="Path 714" d="M603.84,431.465h.827v3.3h.827v9.063H603.84Zm-6.617.824h1.654v-.824h3.309v12.358h-4.963V432.289Zm-3.309,0h2.482v11.535h-2.482ZM588.95,443h.827V432.289h3.309v11.535H588.95V443Zm-4.136-9.063h.827v-1.648h2.481v11.535h-3.309ZM258.9,432.289h-1.655v-.824h-.827v-.824h-.827v-.824h-.827v-.824h-.827v-.824h-.827v-.824h-.827V425.7h-.827v-.824h-.827v-.824H249.8v-.824h-1.654V422.4h-2.481v-.824h-5.79v.824h-1.655v.824H237.4v.824h-.827v.824h-.827v.824h-.827v.824H224.479l-19.344,1.648-12.408,1.648-9.1,1.648-9.1,1.648-9.1,1.648-7.445,1.648-7.445,1.648-12.953,2.987-7.445,2.472-16,.309V443H112.49v-.824h-.827v-.824h-.827v-.824h-.827v-1.648h.827v.824h2.482v.824h12.408v-2.472H124.9v-1.648h-9.1v-.824H90.983v-.824H88.5V432.29h-.827v-.824h-.827v-.824H86.02v-.824H83.538v-.824H81.056v.824h-.827v.824H78.575v-1.648h-.827v-.824h-.827v-.824h-.827v-.824H74.439V425.7H72.785v-.824H68.649v-7.415h-.827v7.415H65.34v.824H62.858v.824H61.2v.824h-.827v.824h-.827v.824H57.9v1.648H55.413v-.824H53.759V422.4h-.827v6.591H52.1v.824H50.45v.824H48.8v.824h-.827v3.3H46.314v-.824h-.827v.824H43.006v.824h-.827v-.824h-.827v-.824h-.827v-.824H39.7v-.824H38.87v-.824h-.827v-.824h-.827v-.824H35.561v-.824H33.907v-.824h-.827v-.824H29.771v-.824H27.289V425.7H21.5v-8.239h.827v-1.648H21.5v-.824h-.827v-2.472H21.5v-2.472h-.827v-.824H21.5v-1.648h-.827v-1.648H21.5v-1.648h.827v-.824H21.5v-.824h-.827V401.8H19.017V377.087h.827v-.824h.827v-.824h-.827v-.824h-.827v-.824h.827v-.824h.827v-4.943h-.827V367.2h.827v-1.648H19.017V363.9h1.655v-1.648h-.827v-.824H18.19V350.722h.827V348.25h.827v-2.472h-.827v-.824H18.19v-.824h-.827v-.824h-.827v.824h-.827v.824h-.827v.824h-.827v2.472h.827v.824h.827v.824h-.827v.824h.827v10.711H14.054V363.9h.827v1.648H13.227v.824h.827v1.648h-.827v4.12h.827v1.648h.827v.824h-.827v.824h-.827v.824h.827v.824h.827V401.8H13.227v.824H12.4v.824h-.827v.824H12.4v1.648h.827v7.415h.827v.824H11.572v2.472H12.4v8.239H8.264v.824H4.955v.824H3.3v.824H1.646v.824H-.008v.824H-.836v.824h-.827v.824H-4.144v-.824H-5.8v.824h-4.963v-1.648h-.827v-1.648h-4.136v-.824h-4.136V425.7h-.827V424.05h.827V422.4h-.827v-1.648h3.309v-1.648h1.654v-6.591h.827v-1.648h.827V409.22h.827v-1.648h-.827v-1.648H-14.9v-1.648h-.827v-7.415h-1.654v.824h-5.79v-.824H-24v-.824h-.827v-.824h4.136v.824h.827v.824h.827v-1.648h-.827v-3.3h-1.654v-.824h-6.618v.824h4.963v.824h-4.963v.824H-39.713v-.824h-4.136v-.824h1.654v-.824H-49.64v2.472h-.827v1.648h-.827v.824h-.827v.824H-54.6V405.1h-.827v1.648h-.827v.824h.827v1.648h.827v2.472h.827v7.415h2.481v1.648h.827v2.472h.827v1.648h-1.654v.824h-.827v1.648h-5.79v.824h-2.482v.824h-1.654v.824h-5.79v-.824h-.827v-.824h-1.654v-.824h-.827v-.824h-.827V425.7H-72.8V424.05h-.827v-3.3h-.827V422.4H-76.11v-1.648h-.827V422.4h-4.136v-1.648h1.654v-1.648h-1.654v.824H-81.9v.824h-1.654v-3.3h4.136v1.648h.827v-.824h.827v-.824h.827v1.648h.827v-2.472h-.827v-.824h-1.654v-.824h-4.136v-.824h-.827v-2.472h-.827v-.824h-1.654v.824h-.827v1.648h.827v-.824h1.654v.824h-.827v1.648h-.827v1.648h-.827v.824h1.654v.824h.827v2.472h-.827v.824h-.827v.824h-2.481v-2.472h-.827v-.824h-.827v-.824H-91v1.648h.827v4.12H-91v-.824h-1.654v.824h-2.482v-.824h-.827v-2.472h-.827v-.824h-.827v.824h-.827v.824h.827v3.3h-1.654v-.824h-2.481v2.472h.827V425.7h.827v1.648h-.827v.824h-.827v.824h.827v-.824h1.654v1.648h-.827v2.472h2.481v.824h.827v1.648h.827v2.472h-.827v-.824h-5.79v.824h-4.136v.824h-1.654v3.3h-.827v-.824h-1.654V443h-1.654v1.648h-14.062v-.824h-.827v-3.3h-.827v-9.887h-.827v-.824h-.827v.824h-.827v.824h-.827v-1.648h-1.654v1.648h1.654v2.472h-.827v-.824h-.827v-.824h-3.309v.824h-.827v5.768h-.827v-8.239h1.654v-.824h-2.481v.824h-3.309v-.824h1.655v-.824h-.827v-.824h-.827v1.648h-9.1v-.824h-2.482v3.3h3.309v.824h1.654v1.648h-2.481v.824h4.136v1.648H-148.9v-.824h-4.963v7.415h-.827v.824h-.827v-4.12h-.827V428.17h-2.481v-.824h-3.309v-2.472h-.827v1.648h-5.79V425.7h-4.136v-.824h-4.136v.824h.827v3.3h4.963v.824h4.136v.824h3.309v.824h4.136v.824H-158v.824h-4.963v-.824h-4.963v-.824h-4.963v-.824H-176.2v.824h3.309v.824h4.963v.824h4.136v.824h4.963v1.648h-4.136v-.824h-8.272v-.824H-176.2v10.711h-1.655v-.824h-.827V433.113h-4.963v4.12h-9.1v-4.12h-5.79v10.711h-1.654v-9.887h-5.79v.824h-7.445v.824h-4.136v-1.648h3.309v-.824h-4.136v-1.648h4.963v-.824h4.136v-.824h4.136v-.824h4.963v-4.119H-203.5v.824h-1.654V424.05h-.827V425.7h-1.654v.824h-4.136v.824h-6.618v.824h-2.481v.824h.827v12.359h-.827v2.472h-1.654v-7.415H-225v-1.648h-2.482v-1.648h3.309v-.824h1.654v-3.3H-225v.824h-4.963v-.824h-.827v-3.3h-.827v-.824h-.827v-4.12h.827v-2.472h1.654v.824h.827v.824h1.654v-2.472h-.827v-2.472h-1.654v.824h-1.654v.824h-.827v-1.648h.827v-2.472H-234.1v.824h.827v4.943h-.827v.824h-.827v.824h-.827v.824h-.827V422.4h-.827v1.648h-.827v2.472h-.827v2.472h-.827v1.648h1.654V439.7h-.827v-.824h-.827v-.824h-1.655v-.824h1.655v-6.591h-.827v.824h-.827v.824h-.827v.824h-1.654v.824h-2.481v1.648h.827v1.648h-.827v-.824h-.827v-2.472h-.827v3.3h.827v3.3h.827v3.3h-31.433v4.944H784.994v-4.944h-39.7v-3.3h-2.482V439.7h-.827v-.824h-.827v-.824h-2.482v-.824h-.827v-.824h.827v-.824h-1.654v1.648h-1.654v-.824h-4.136v-.824h-8.272v-.824h-5.79v-.824h-5.79v-.824H696.485v.824h.827v.824h-.827v.824h-.827v.824h-4.963v-3.3h1.655v-.824h-8.272v.824H679.94v.824h-2.481v.824H674.15v.824h-4.136v.824H668.36v.824h-1.654l-5.79,6.591h-52.94V433.113h-.827v-4.12H608.8v-.824h.827v-.824h.827v-.824h.827v-3.3h-4.136v1.648h-2.481v.824h-1.654v.824h-1.654v.824h-4.136v.824h-5.791v.824H590.6v-.824h-4.136v-.824h-2.481v-.824h-.827V425.7h-1.654v-.824h-.827v-.824h-.827v-.824h-4.136v1.648h-.827v1.648h.827v.824h1.655v.824h.827v.824h1.654v7.415h-.827V443H578.2v.824H567.443V443h-.827v-.824h-.827v-.824h-.827v-.824h-.827v-1.648h-2.481v-.824h-.827v-.824H560v-.824h-.827v-.824h-3.309v-.824h-2.482v-4.944h-3.309V407.572h-.827v-1.648h.827v-7.415h-.827v-1.648h.827v-7.415h-.827V387.8h.827v-7.415h-.827v-1.648h.827v-2.472h.827v-3.3h.827v-.824H550.9V370.5h-1.655v-4.119h-.827v-9.063h-.827v-9.887h-.827v-9.063h.827v-2.472h-3.309v.824h.827v1.648h.827V346.6h-.827v9.887h-.827V367.2h-.827v.824h-.827v3.3H541.8v1.648h-.827v1.648h.827v2.472h.827v.824h.827v3.3h-.827v7.415h.827v1.648h-.827v7.415h.827v1.648h-.827v6.591h.827V408.4h-.827v7.415h.827v1.648h-.827v7.415h.827v4.119h-.827v1.648h-3.309v.824h.827v3.3h-1.654v.824h-4.963v1.648H532.7v.824h-.827v.824h-.827v.824h-2.482v1.648H526.91v-7.415h.827v-7.415h.827v-1.648h.827v-.824h.827v-.824h.827v-1.648h-2.482v1.648h-.827v.824h-.827v.824h-1.654v-1.648h-.827v1.648H523.6v-1.648h-.827v1.648h-.827V422.4h-.827v2.472h-.827v-3.3h-.827v2.472h-.827v.824h-.827v-3.3h.827v-1.648h.827v-2.472h-.827v.824h-.827v1.648h-.827V422.4h-.827v1.648h-.827v-2.472h.827v-2.472h.827v-1.648H515.33v.824H514.5v2.472h-.827v3.3h-.827v-4.944h.827v-.824h.827v-1.648h-2.482v4.12h-.827v2.472h-.827v-4.12h.827v-3.3H509.54v.824h-.827V422.4h-.827v1.648h-.827v-3.3h.827v-4.944H505.4v-1.648h-5.79v-.824h-1.654v.824h-.827v-.824h-3.309v.824H493v.824h-.827v8.239h-.827v-4.944h-.827v-1.648h-.827v-.824h-.827v7.415h-.827v-4.12h-.827v-2.472h-2.482v1.648h.827v2.472h.827v3.3h-.827v-3.3h-.827v-1.648H483.9v-1.648h-.827v-.824h-.827v1.648h.827v2.472h.827v2.472h-.827v-2.472h-.827v-2.472h-.827v-.824h-.827v-.824h-.827v2.472h.827v2.472h.827v2.472h-.827v-.824h-.827v-3.3h-.827v-1.648h-.827v-.824h-.827v1.648h.827v2.472h.827v2.472h-.827v-2.472h-.827v-1.648h-.827v-1.648h-.827v2.472h.827v2.472h.827v1.648h-.827v-.824h-.827V425.7H474.8V424.05h-.827V422.4h-.827v-1.648h-.827v-.824h-3.309v.824h-.827v.824h-.827v1.648h.827v.824h.827V425.7h.827v.824h.827v4.12h-.827v.824h.827v1.648h.827v10.711h-9.926V443h-1.654v-.824h-2.481v-.824H456.6v.824h-4.136l-18.2-13.183h-4.136v-.824H429.3v-.824h-1.655V419.93h.827v-1.648h-.827v.824h-.827v-.824h-.827v-.824h-.827v9.887h-.827v-.824h-.827V425.7H406.141v3.3h-.827v1.648h-.827v3.3h-.827v2.472h-.827v3.3h1.654v-.824h1.655v1.648h-.827v.824h-.827v.824h-.827V443H402v.824H386.574l-6.617-2.472-13.023-3.3-9.926-2.472L344.6,433.113l-13.235-2.472-14.56-1.648-14.062-1.648-15.717-.824h-6.617v-1.648h-.827v-.824h-.827v-.824h-.827V422.4h-1.654v-.824h-5.79v.824h-3.309v.824h-1.654v.824h-.827V425.7h-.827v.824h-.827v.824h-.827v.824h-.827v.824h-.827v1.648h-.827v.824H258.9v.824h.827v-.824h1.655v-.824h.827v-.824h.827v-.824h1.654v-.824h1.655v-.824H268v-.824h5.79v.824h1.654v.824H277.1v.824h1.654v.824h.827v.824h.827v.824l6.465.824,20.68,1.648,13.235,1.648,14.062,2.472,14.062,2.472,7.445,1.648,7.6,1.648H152.194l5.79-1.648,9.1-1.648,9.1-1.648,8.272-1.648,10.753-1.648,5.79-.824,6.617-.824,11.553-.824,15.745-.824v-.824h.827v-.824h.827v-.824h.827v-.824h1.654v-.824h.827v-.824h2.482v-.824h5.79v.824H249.8v.824h1.654v.824h.827v.824h.827v.824h.827v.824h1.654v.824h.827v.824H258.9v-.824Zm216.724-8.239v-2.472H474.8v2.472Zm-.827-4.944h-.827v-.824h-1.654v.824h.827v.824h.827v1.648h.827v-2.472Zm46.323,2.472v-1.648h.827v-1.648h-.827v.824h-.827v2.472Zm1.654.824v-.824h.827v-1.648h-.827v.824h-.827V422.4Zm1.654-2.472v-.824H523.6v.824Zm-.827,3.3h.827v-1.648H523.6Zm1.655-1.648v-.824h-.827v.824Zm0,1.648h.827v-1.648h-.827Zm1.654-1.648v-.824h-.827v.824Zm-.827,2.472h.827v-.824h-.827Zm1.654-.824V422.4h-.827v.824Zm.827-2.472h-.827v.824h.827Zm-751.088,8.239h.827v-.824h-.827Zm135.659-10.711v-.824h-.827v.824Zm-153.03,23.893h.827v1.648h-.827Zm-6.617-4.12h.827v.824h-.827Zm2.481-.824h1.654v.824h-1.654Zm11.581-.824h.827v.824h-.827Zm-2.482,0h1.655v.824h-1.655ZM699.8,433.937h4.963v.824h1.654v.824h.827v.824h.827v.824h-3.309v-.824h-4.136v-.824H699.8v-1.648Zm-116.634,9.887H580.68v-4.943h.827v-8.239h.827v.824h1.654v4.12h-.827Zm-731.235-9.887h.827v.824h-.827Zm-84.373,1.648h-.827v-1.648h1.654v-.824h3.309v1.648h-1.654v.824h1.654v1.648h-1.654v-.824h-.827v-.824h-.827v-.824h-.827v.824Zm-3.309-1.648h1.654v1.648h-.827v-.824h-.827v-.824ZM426,419.931h.827v9.063H426Zm-519.474,9.887v.824H-95.96v-.824h-2.482v-.824h.827v-.824h-.827v-1.648h1.654v.824h2.482v-.824h1.654V425.7h.827v.824H-91V425.7h1.654v-.824h4.136v.824h1.654v.824h.827v1.648h1.654v-.824h1.654v.824h.827v.824h.827v.824H-81.9v-.824h-2.482v-.824h-.827v.824h-.827v.824h-.827v-.824h-.827v-.824h2.482V425.7h-.827v.824h-2.482v2.472H-91v-.824h-1.654v1.648Zm594.749-9.887h.827v4.12h-.827Zm-3.309,0h.827v3.3h-.827Zm-3.309,0h.827v3.3h-.827Zm9.1-.824h.827v-1.648h.827v6.591h-.827v-2.472h-.827Zm-538.5,0h1.654v-.824h3.309v-.824h1.654v3.3h-.827v-.824h-1.654v-.824h-2.482v.824h-1.654v-.824Zm-15.717-13.182h.827V405.1h.827v-.824h.827v-4.943h.827v.824H-45.5v7.415h.827v6.591H-45.5v.824h-2.482v-4.12h-.827V409.22h-.827V408.4h-.827v-2.472Zm26.47-4.944h4.136v4.944h.827v.824h.827V408.4h.827v1.648H-18.2v.824h-.827v.824h-.827v4.944h-1.654v-.824h-.827v-.824h-2.482v-.824h.827v-1.648h.827v-3.3h.827v-3.3h-.827v-3.3h-.827v-1.648Zm-6.618-4.12h-8.272v.824h-.827v.824h-1.654v.824h-.827v-.824h-.827v-1.648h.827v-.824h.827v-.824h11.581v.824h-.827v.824ZM-45.5,395.214h1.654v1.648h-.827v-.824H-45.5Z" transform="translate(277.944 -331.772)" fill="#a25027" fill-rule="evenodd"/>
            <path id="Path_715" data-name="Path 715" d="M-56.157,420.637v.824h-.827v.824h-.827v.824h1.654v-.824h2.482v-.824h2.481v-.824h2.482v-2.471h.827V416.52h.827V415.7h.827v-.824h.827v-.824h.827v-.822h.827V412.4h.827v-.824h1.654v-.825h1.654v-.824H-36.3v.824h1.654v.825H-33v.824h.827v.824h.827v.822h.827v.824h.827v.824h.827v1.646h.827v2.473h.827v.822h2.481v.824h1.654v.824h2.481v.824h1.654v-.824h-.827v-.824h-.827v-.824h-.827v-.822H-23.9v-9.064l4.963-4.12v-1.647l-5.79-4.944v-8.014h-9.1v-1.872h-.827v-23.07l3.309-4.12v-4.12l-5.79-3.3v-.824h.827v-1.646h-.827v-8.24h-.827v-2.471h.827v-.824h-.827v-4.12h.827V336.6h-.827v-2.471h-.827v1.647h-.827v1.649h.827v3.3h-.827v1.649h.827v1.646h-.827v9.064h-.827v.824h.827v1.646l-5.79,3.3v4.12l3.309,4.12v23.07h-.827V391.8h-9.1v8.24l-5.79,4.944v.822l4.963,4.944v8.24H-55.33v1.647Z" transform="translate(573.977 -334.128)" fill="#a25027" fill-rule="evenodd"/>
            <path id="Path_716" data-name="Path 716" d="M13.328,392.016H12.5v.824h.827Zm0,1.648h.827v-.824h-.827Zm2.481-.824v-.824H14.155v.824Zm-1.654-1.648h-.827v.824h.827Zm-.827-.824H12.5v-.824h.827v-2.472H12.5v-1.648h.827V384.6H12.5v-.824h.827v-.824H12.5v-.824h-.827v1.648h-.827v.824H7.537v.824H6.71v3.3H5.883v.824H6.71v.824H8.365v.824h2.481v.824h.827v-.824h1.654v-.824Zm-7.445,0v.824H6.71v-.824Zm-.827.824v.824h.827v-.824Zm-.827.824v.824h.827v-.824ZM3.4,393.664h.827v-.824H3.4Zm1.654.824H3.4v-.824H1.747v-.824H.92v-.824H.093v-.824H-.735V388.72H.093v-1.648H-.735V384.6H.093v-.824H.92v-.824h.827v-.824H3.4v-1.648h.827v.824h.827v-1.648H6.71v-.824H9.192v4.943h.827v-4.119h.827v-.824H12.5v.824h2.481v.824h-.827v1.648h.827v-.824h.827v.824h1.654v.824h.827v.824h.827v7.415H17.464v-.824H15.809v.824h.827v.824h1.654v.824h-.827v.824h-.827v.824H14.155v.824h.827v.824H13.328v-1.648H12.5v2.472H10.846v-.824H9.192v.824H6.71v-.824H5.056v-1.648Zm0,0h.827v-.824H5.056Zm11.581-1.648h-.827v.824h.827Zm-3.309-10.711v.824h.827v-.824Zm-8.272,0h.827v-.824H5.056Zm-1.654.824h.827v-.824H3.4Zm.827.824h.827v-.824H4.229Zm.827.824h.827v-.824H5.056Zm1.654-.824v-.824H5.883v.824Zm0,.824h.827v-.824H6.71Zm1.654-.824v-.824H7.537v.824Zm-2.481.824v.824H6.71V384.6Zm-4.136,7.415v-.824H.92v.824Zm9.926.824v.824H12.5v-.824ZM24.909,387.9h.827v.824h-.827v4.119h-.827v1.648h-.827v1.648h-.827v1.648H21.6v.824h-.827v.824h-.827v.824h-.827v.824h-.827v.824H16.637v.824H14.155v.824h-9.1v-.824H2.574V401.9H1.747v-.824H.093v-.824H-.735v-.824h-.827v-.824h-.827v-.824h-.827v-.824h-.827v-1.648H-4.87v-1.648H-5.7v-3.3h-.827V384.6H-5.7v-1.648h.827v-1.648h.827v-1.648h.827v-.824h.827v1.648h.827v3.3h-.827v.824h-.827v.824h-.827v.824H-4.87v.824H-5.7v1.648h.827v.824h.827v.824h.827v.824h.827v.824h.827v5.767H5.056v.824h.827v.824H6.71v.824H8.365v.824h.827v.824h1.654v-.824h.827v-.824H12.5v-.824h.827v-.824h.827v-.824h6.618v-5.767H21.6v-.824h.827v-.824h.827v-.824h.827v-.824h.827V387.9ZM8.365,374.714H7.537v.824H6.71v1.648H5.883v.824H-1.562v-1.648h.827v-.824H.92v-.824h.827v-.824H3.4v-.824H7.537v-.824h4.136v.824h3.309v.824h2.482v.824h.827v.824h1.654v.824h.827v.824H21.6v1.648h.827v.824h.827v1.648h.827v1.648h.827v4.119h-.827v-.824h-.827v-.824h-.827V384.6H21.6v-.824h-.827v-5.768H14.155v-.824h-.827v-.824H12.5v-.824h-.827v-.824h-.827v-.824H8.365v.824ZM-7.352,403.551v.824H-4.87v.824h2.481v.824H.093v.824H2.574v.824H5.883v.824H8.365v.824h4.963v.824h2.481v.824h4.963v.824H35.662v-.824h-.827v-.824h-.827v-.824H33.18v-.824H31.526v-.824H30.7v-.824h-.827v-.824h-.827V405.2h-.827v-.824H27.39v-.824h-.827v-.824H24.909v-2.472h.827v-.824h.827v-1.648h.827v-2.472h.827V392.84h.827v-9.063h-.827v-3.3H27.39v-1.648h-.827v-1.648h-.827v-.824h-.827v-.824h-.827v-.824h-.827v-.824h-.827v-.824H21.6v-.824h-.827v-.824H19.118v-.824H17.464v-.824H14.982v-.824H13.328v-.824H11.673V367.3h-.827V365.65h-.827v-8.239H9.192v5.767H8.365V367.3H7.537v.824H5.883v.824H3.4v.824H.92v.824H-.735v.824h-.827v.824H-3.216v.824h-.827v.824H-4.87v.824H-5.7v.824h-.827v1.648h-.827v.824h-.827v1.648h-.827v2.472h-.827v12.359h.827v2.472h.827v1.648h.827v.824h.827v.824H-5.7v2.472h-.827v.824h-.827Z" transform="translate(638.497 -303.034)" fill="#a25027" fill-rule="evenodd"/>
            <path id="Path_717" data-name="Path 717" d="M-77.676,377.285h-9.1v.824H-94.22v.824h-4.964v.822H-96.7v1.649h-6.619v.824h.828V384.7h-.828v1.646h2.483v-.822h5.79V384.7h2.481v-.825h4.136v-.824h3.309v-.822h2.482v-.824h3.309v-.824h1.654v-.824h3.309v-.822h3.309v-.824h2.481v-.824h4.136v-.824H-77.676Z" transform="translate(512.778 -277.592)" fill="#a25027" fill-rule="evenodd"/>
            <path id="Path_718" data-name="Path 718" d="M-229.189,373.758H-232.5v.824h-1.655v-.824h-4.136v.824h-5.789v4.12h19.853v-2.471h.828v-.824h-.828v-.824h-4.136v-1.649h-.828Z" transform="translate(323.488 -282.304)" fill="#a25027" fill-rule="evenodd"/>
            <path id="Path_719" data-name="Path 719" d="M52.608,372.825h.827v1.647h.827v.824h.827V373.65h.827v-9.888H52.608Z" transform="translate(722.468 -294.553)" fill="#a25027" fill-rule="evenodd"/>
            <path id="Path_720" data-name="Path 720" d="M-238.289,377.757h9.1v-.824h2.481v-.824h-17.37v2.473h.828v-.824h.828v-.824h4.134Z" transform="translate(323.488 -278.064)" fill="#a25027" fill-rule="evenodd"/>
            <path id="Path_721" data-name="Path 721" d="M54.263,361.411H52.608v5.766h.827v-.822H55.09v.822h.827v-5.766H55.09v-.824h-.827Z" transform="translate(722.468 -298.794)" fill="#a25027" fill-rule="evenodd"/>
            <path id="Path_722" data-name="Path 722" d="M-238.02,376.932h-3.309v.824h4.136v-1.648h-.827v.824Zm-4.136.824v-.824h-.827v.824h-3.309v.824h-4.136v1.648h.827V379.4h4.136v-.824h4.136v-.824Z" transform="translate(314.949 -278.064)" fill="#a25027" fill-rule="evenodd"/>
            <path id="Path_723" data-name="Path 723" d="M-265.245,377.757h1.655v-1.649h-1.655Z" transform="translate(295.022 -278.064)" fill="#a25027" fill-rule="evenodd"/>
            <path id="Path_724" data-name="Path 724" d="M-2.778,374.582h.827v-1.649h-.827Z" transform="translate(647.985 -282.304)" fill="#a25027" fill-rule="evenodd"/>
            <path id="Path_725" data-name="Path 725" d="M139.988,376.108h-1.655v.824h1.655Z" transform="translate(837.75 -278.064)" fill="#a25027" fill-rule="evenodd"/>
            <path id="Path_726" data-name="Path 726" d="M-263.833,376.932h1.653v-.824h-1.653Z" transform="translate(296.921 -278.064)" fill="#a25027" fill-rule="evenodd"/>
            <path id="Path_727" data-name="Path 727" d="M-250.781,375.638h.828v-1.646h-.828Z" transform="translate(314.473 -280.89)" fill="#a25027" fill-rule="evenodd"/>
            <path id="Path_728" data-name="Path 728" d="M-2.778,368.938h.827v-1.649h-.827Z" transform="translate(647.985 -289.842)" fill="#a25027" fill-rule="evenodd"/>
            <path id="Path_729" data-name="Path 729" d="M-266.3,377.285h1.655v-.824H-266.3Z" transform="translate(293.6 -277.592)" fill="#a25027" fill-rule="evenodd"/>
            <path id="Path_730" data-name="Path 730" d="M-254.661,378.7h.825v-.824h-.825Z" transform="translate(309.256 -275.708)" fill="#a25027" fill-rule="evenodd"/>
            <path id="Path_731" data-name="Path 731" d="M.4,371.994h.827v-.824H.4Z" transform="translate(652.255 -284.66)" fill="#a25027" fill-rule="evenodd"/>
            <path id="Path_732" data-name="Path 732" d="M-.309,368.114H.519v-.824H-.309Z" transform="translate(651.306 -289.842)" fill="#a25027" fill-rule="evenodd"/>
            <path id="Path_733" data-name="Path 733" d="M-257.131,376.228h.828V375.4h-.828Z" transform="translate(305.934 -279.005)" fill="#a25027" fill-rule="evenodd"/>
            <path id="Path_734" data-name="Path 734" d="M-2.425,373.053H-1.6v-.824h-.827Z" transform="translate(648.46 -283.246)" fill="#a25027" fill-rule="evenodd"/>
            <path id="Path_735" data-name="Path 735" d="M-1.72,357.528h.827v-.822H-1.72Z" transform="translate(649.409 -303.975)" fill="#a25027" fill-rule="evenodd"/>
          </g>
        </g>
      </g>
    </g>
  </g>
</svg>
