<?xml version="1.0" encoding="utf-8"?>
<!-- Generator: Adobe Illustrator 17.0.0, SVG Export Plug-In . SVG Version: 6.00 Build 0)  -->
<!DOCTYPE svg PUBLIC "-//W3C//DTD SVG 1.1//EN" "http://www.w3.org/Graphics/SVG/1.1/DTD/svg11.dtd">
<svg version="1.1" id="Layer_1" xmlns="http://www.w3.org/2000/svg" xmlns:xlink="http://www.w3.org/1999/xlink" x="0px" y="0px"
	 width="1000px" height="1000px" viewBox="0 0 1000 1000" enable-background="new 0 0 1000 1000" xml:space="preserve">
<rect x="1298.529" display="none" fill="#440C0C" width="1000" height="1000"/>
<rect x="2576.082" display="none" fill="#FF6010" width="1000" height="1000"/>
<text transform="matrix(1 0 0 1 -790.8239 173.8428)" font-family="'Exotic350BT-Bold'" font-size="158.8688">Gamyş</text>
<g>
	<polygon fill="#FF6010" points="413.725,264.3 413.725,271.97 394.229,262.266 355.765,269.937 355.765,262.717 394.889,254.925 	
		"/>
	<g>
		<rect x="632.375" y="459.803" fill="#440C0C" width="27.607" height="27.607"/>
		<rect x="664.873" y="459.803" fill="#440C0C" width="27.607" height="27.607"/>
		<rect x="632.375" y="426.435" fill="#440C0C" width="27.607" height="27.607"/>
		<rect x="664.873" y="426.435" fill="#440C0C" width="27.607" height="27.607"/>
	</g>
	<polygon fill="#FF6010" points="671.104,333.897 661.993,322.611 647.058,329.864 637.739,334.392 600.627,294.554 
		569.185,260.827 561.471,252.541 547.986,238.067 527.183,247.496 410.978,300.159 410.978,332.524 394.02,340.216 394.02,269.981 
		360.546,276.652 360.546,318.16 313.565,339.447 307.378,347.118 307.367,347.129 266.1,398.187 194.92,486.27 202.591,499.688 
		353.523,499.688 545.448,271.586 547.437,269.223 548.393,270.245 586.89,311.555 617.375,344.283 523.677,389.791 445.353,486.72 
		452.76,499.688 537.128,499.688 641.651,370.339 655.389,353.338 660.708,346.766 784.276,499.688 805.079,499.688 	"/>
	<path fill="#440C0C" d="M382.621,184.51c-0.093,3.494-0.562,6.769-1.772,9.792c-1.176,3.04-3.053,5.822-5.193,8.727
		c-2.099,2.912-4.395,6.039-6.023,9.666c-1.648,3.608-2.498,7.628-2.482,11.51c-0.02,3.803,0.346,7.505,1.103,11.218
		c0.451,1.838,0.942,3.674,1.758,5.404c0.432,0.856,0.872,1.701,1.455,2.464c0.586,0.739,1.248,1.488,2.118,1.849
		c-0.678-0.623-1.078-1.44-1.396-2.261c-0.339-0.812-0.545-1.68-0.732-2.535c-0.339-1.731-0.484-3.5-0.527-5.267
		c-0.115-3.521,0.143-7.137,0.533-10.602c0.388-3.392,1.326-6.587,2.872-9.534c1.52-2.964,3.602-5.72,5.774-8.698
		c1.072-1.494,2.155-3.073,3.153-4.744c0.948-1.716,1.866-3.5,2.475-5.427c1.304-3.835,1.529-7.944,1.187-11.716
		c-0.323-3.841-1.341-7.619-2.929-11.082c-1.703-3.397-3.908-6.599-6.931-8.782C381.264,170.553,382.789,177.662,382.621,184.51z"/>
	<path fill="#440C0C" d="M391.7,187.422c0.525,3.282,0.491,6.574-0.053,9.632c-0.54,3.034-1.913,5.88-3.496,8.758
		c-1.599,2.865-3.436,5.71-5.245,8.658c-1.789,2.961-3.587,6.019-4.991,9.397c-0.669,1.706-1.312,3.447-1.686,5.309
		c-0.194,0.928-0.383,1.854-0.434,2.825c-0.032,0.476-0.093,0.966-0.097,1.425l0.009,1.366c0.203,7.266,2.353,14.268,6.14,20.133
		c-0.838-3.377-1.45-6.731-1.766-10.081c-0.343-3.339-0.388-6.668-0.057-9.896c0.491-6.234,4.053-11.786,7.571-17.618
		c1.763-2.92,3.6-5.89,5.171-9.125c0.399-0.8,0.771-1.627,1.115-2.478c0.377-0.824,0.656-1.719,0.951-2.598
		c0.315-0.864,0.491-1.823,0.724-2.728c0.146-0.937,0.302-1.884,0.363-2.822c0.232-3.772-0.434-7.436-1.617-10.804
		c-1.218-3.36-2.868-6.519-5.067-9.238C390.365,180.825,391.267,184.114,391.7,187.422z"/>
	<g>
		<path fill="#440C0C" d="M324.741,664.088c-8.593,7.465-18.156,13.156-28.692,17.075c-10.536,3.919-21.575,5.879-33.113,5.879
			c-8.843,0-16.996-1.239-24.459-3.715c-7.464-2.478-14.143-6.13-20.038-10.959c-7.902-6.459-13.798-13.955-17.686-22.484
			c-3.889-8.528-5.832-18.251-5.832-29.163c0-9.407,1.959-18.454,5.879-27.14c3.919-8.686,9.391-16.071,16.415-22.154
			c6.146-5.268,13.107-9.249,20.884-11.947c7.776-2.695,16.181-4.046,25.212-4.046c11.539,0,21.59,2.306,30.151,6.915
			c8.561,4.609,15.976,11.745,22.248,21.401l-15.993,11.759c-3.826-8.151-8.498-14.266-14.017-18.343
			c-5.519-4.076-11.822-6.116-18.909-6.116c-10.85,0-19.254,4.375-25.212,13.124c-5.959,8.748-8.937,21.119-8.937,37.112
			c0,14.55,3.354,26.356,10.066,35.419c6.71,9.063,15.428,13.593,26.152,13.593c4.013,0,7.776-0.611,11.289-1.834
			c3.511-1.223,6.929-3.058,10.254-5.503V627.87h34.337V664.088z"/>
		<path fill="#440C0C" d="M329.163,683.938l43.18-125.776h34.054l46.096,125.776h-37.441l-13.265-37.159h-42.239l-12.511,37.159
			H329.163z M365.005,630.787h31.044l-16.275-45.062L365.005,630.787z"/>
		<path fill="#440C0C" d="M467.074,683.938V558.161h32.926l28.315,67.827l28.129-67.827h34.524v125.776h-35.09v-82.691
			l-33.959,82.691h-3.386l-33.208-79.022v79.022H467.074z"/>
		<path fill="#440C0C" d="M639.604,683.938v-59.548l-36.783-66.228h39.135l24.458,48.165l26.436-48.165h18.25l-35.843,64.346v61.43
			H639.604z"/>
		<path fill="#440C0C" d="M732.454,651.952c2.571,6.084,5.786,10.757,9.643,14.017c3.857,3.262,8.105,4.892,12.748,4.892
			c4.766,0,8.686-1.412,11.759-4.234c3.072-2.822,4.609-6.364,4.609-10.63c0-3.449-1.161-6.569-3.481-9.361
			c-2.32-2.789-6.115-5.628-11.382-8.514l-4.986-2.727c-11.415-6.083-18.283-10.128-20.602-12.135
			c-4.767-4.139-8.137-8.263-10.114-12.371c-1.975-4.107-2.963-8.921-2.963-14.44c0-12.103,4.06-21.997,12.183-29.681
			c8.121-7.681,18.705-11.523,31.75-11.523c9.156,0,17.183,2.086,24.083,6.255c6.898,4.171,12.292,10.175,16.181,18.015
			l-14.299,9.972c-2.51-6.021-5.692-10.537-9.549-13.547c-3.856-3.01-8.451-4.516-13.782-4.516c-4.453,0-8.137,1.381-11.053,4.139
			c-2.917,2.761-4.375,6.209-4.375,10.348c0,3.514,1.207,6.586,3.622,9.22c2.414,2.634,7.07,5.707,13.97,9.219l2.352,1.223
			c12.855,6.398,20.602,10.694,23.236,12.889c4.641,3.825,7.981,7.854,10.019,12.088c2.037,4.234,3.058,9.172,3.058,14.817
			c0,12.356-4.313,22.422-12.935,30.197c-8.624,7.777-19.836,11.665-33.631,11.665c-9.847,0-18.548-2.164-26.105-6.491
			c-7.558-4.327-13.311-10.442-17.263-18.343L732.454,651.952z M739.04,724.013v-9.407c4.891,1.129,9.391,2.022,13.5,2.68
			c4.106,0.66,7.384,0.989,9.831,0.989c3.763,0,6.553-0.644,8.372-1.929c1.819-1.286,2.729-3.214,2.729-5.785
			c0-2.761-1.004-4.798-3.01-6.115c-2.009-1.317-5.174-1.975-9.502-1.975c-1.255,0-2.243,0.014-2.963,0.046
			c-0.722,0.031-1.396,0.047-2.023,0.047v-18.626h7.338v9.595h2.727c6.836,0,12.042,1.442,15.617,4.327
			c3.574,2.884,5.361,7.118,5.361,12.7c0,5.706-2.038,10.081-6.114,13.123c-4.078,3.041-9.941,4.563-17.591,4.563
			c-3.137,0-6.773-0.362-10.912-1.082C748.258,726.443,743.805,725.391,739.04,724.013z"/>
	</g>
	<path fill="#FF6010" d="M176.184,800.111c3.036-1.878,6.142-3.651,9.28-5.36c3.133-1.724,6.312-3.36,9.502-4.983
		c6.4-3.197,12.88-6.263,19.462-9.1c13.149-5.718,26.61-10.786,40.327-15.165c27.42-8.781,55.894-14.834,84.926-17.369l5.447-0.446
		c1.816-0.146,3.64-0.207,5.461-0.314l5.467-0.287c1.824-0.076,3.652-0.091,5.479-0.139l5.484-0.105
		c1.829,0.002,3.659,0.051,5.49,0.075l5.494,0.091c1.831,0.068,3.662,0.177,5.495,0.264l5.498,0.279
		c1.831,0.131,3.661,0.307,5.493,0.459l5.495,0.483c1.81,0.193,3.578,0.432,5.369,0.646l10.717,1.32l5.36,0.661l5.342,0.787
		c7.12,1.064,14.257,2.068,21.329,3.398l10.631,1.889c3.541,0.64,7.057,1.383,10.587,2.07c3.524,0.704,7.058,1.397,10.561,2.177
		l10.51,2.337c3.511,0.763,6.995,1.584,10.477,2.409l10.45,2.465l41.352,10.325c3.43,0.888,6.837,1.664,10.256,2.503l5.126,1.236
		c1.709,0.418,3.413,0.766,5.12,1.153c3.413,0.747,6.826,1.529,10.239,2.25c3.415,0.655,6.824,1.339,10.234,2.029l2.558,0.515
		l2.561,0.434l5.123,0.859l5.125,0.861c1.708,0.296,3.422,0.46,5.133,0.698l10.276,1.314l10.301,0.947l2.577,0.238
		c0.859,0.091,1.721,0.092,2.581,0.143l5.167,0.235l5.17,0.238c0.863,0.031,1.723,0.1,2.588,0.1l2.594,0.007l10.389,0.054
		c1.73,0.041,3.474-0.058,5.214-0.113l5.224-0.185c27.895-0.925,55.977-4.293,83.996-8.235c28.035-4.023,56.023-8.928,84.049-14.272
		c-13.344,5.083-26.928,9.503-40.595,13.662c-13.664,4.187-27.479,7.867-41.373,11.331c-27.828,6.729-56.054,12.258-84.947,14.95
		l-5.42,0.492c-1.808,0.157-3.61,0.358-5.436,0.418l-10.935,0.549l-2.737,0.13c-0.912,0.039-1.829,0.008-2.743,0.015l-5.492-0.013
		l-5.496-0.016c-0.916-0.014-1.834,0.02-2.748-0.035l-2.742-0.132l-10.978-0.535c-1.829-0.104-3.643-0.317-5.464-0.484l-5.461-0.532
		c-1.817-0.195-3.65-0.319-5.455-0.572l-5.42-0.736l-5.422-0.738l-2.71-0.375l-2.686-0.453c-3.582-0.602-7.164-1.208-10.742-1.845
		c-3.556-0.682-7.09-1.42-10.637-2.129c-1.767-0.366-3.554-0.698-5.306-1.092l-5.266-1.166c-3.502-0.789-7.042-1.529-10.513-2.359
		c-6.965-1.651-13.917-3.334-20.814-5.034l-20.679-5.05c-13.732-3.347-27.445-6.634-41.198-9.517
		c-3.436-0.734-6.865-1.527-10.308-2.215l-10.335-2.034c-3.445-0.679-6.888-1.379-10.351-1.946
		c-3.46-0.589-6.911-1.231-10.368-1.846l-5.185-0.928l-5.204-0.804l-10.412-1.609c-1.732-0.261-3.48-0.553-5.199-0.789l-5.109-0.654
		c-1.704-0.215-3.406-0.456-5.114-0.652l-5.14-0.48c-1.714-0.155-3.427-0.333-5.145-0.471l-5.164-0.305
		c-1.722-0.096-3.444-0.218-5.168-0.295l-5.181-0.157c-1.728-0.049-3.456-0.133-5.186-0.155l-5.194-0.011
		c-1.732,0.007-3.465-0.033-5.199,0.012l-5.202,0.141c-27.768,0.76-55.62,4.543-83.126,10.482
		c-13.771,2.924-27.439,6.484-41.027,10.458c-6.79,2.001-13.552,4.132-20.28,6.398l-5.044,1.716l-5.025,1.783
		C182.839,797.559,179.498,798.789,176.184,800.111z"/>
</g>
<g>
	<polygon fill="#FFFDFD" points="1712.254,264.3 1712.254,271.97 1692.758,262.266 1654.294,269.937 1654.294,262.717 
		1693.417,254.925 	"/>
	<g>
		<rect x="1930.904" y="459.803" fill="#FFFDFD" width="27.607" height="27.607"/>
		<rect x="1963.402" y="459.803" fill="#FFFDFD" width="27.607" height="27.607"/>
		<rect x="1930.904" y="426.435" fill="#FFFDFD" width="27.607" height="27.607"/>
		<rect x="1963.402" y="426.435" fill="#FFFDFD" width="27.607" height="27.607"/>
	</g>
	<polygon fill="#FFFDFD" points="1969.633,333.897 1960.522,322.611 1945.587,329.864 1936.268,334.392 1899.156,294.554 
		1867.714,260.827 1859.999,252.541 1846.515,238.067 1825.711,247.496 1709.506,300.159 1709.506,332.524 1692.549,340.216 
		1692.549,269.981 1659.075,276.652 1659.075,318.16 1612.094,339.447 1605.906,347.118 1605.896,347.129 1564.629,398.187 
		1493.449,486.27 1501.12,499.688 1652.052,499.688 1843.976,271.586 1845.965,269.223 1846.922,270.245 1885.418,311.555 
		1915.904,344.283 1822.206,389.791 1743.882,486.72 1751.289,499.688 1835.657,499.688 1940.18,370.339 1953.917,353.338 
		1959.236,346.766 2082.804,499.688 2103.608,499.688 	"/>
	<path fill="#FFFDFD" d="M1681.15,184.51c-0.093,3.494-0.562,6.769-1.772,9.792c-1.176,3.04-3.053,5.822-5.193,8.727
		c-2.099,2.912-4.395,6.039-6.023,9.666c-1.648,3.608-2.498,7.628-2.482,11.51c-0.02,3.803,0.346,7.505,1.103,11.218
		c0.451,1.838,0.942,3.674,1.758,5.404c0.432,0.856,0.872,1.701,1.455,2.464c0.586,0.739,1.248,1.488,2.118,1.849
		c-0.678-0.623-1.078-1.44-1.396-2.261c-0.339-0.812-0.545-1.68-0.732-2.535c-0.339-1.731-0.484-3.5-0.527-5.267
		c-0.115-3.521,0.143-7.137,0.533-10.602c0.388-3.392,1.326-6.587,2.872-9.534c1.52-2.964,3.602-5.72,5.774-8.698
		c1.072-1.494,2.155-3.073,3.153-4.744c0.948-1.716,1.866-3.5,2.475-5.427c1.304-3.835,1.529-7.944,1.187-11.716
		c-0.323-3.841-1.341-7.619-2.929-11.082c-1.703-3.397-3.908-6.599-6.931-8.782C1679.793,170.553,1681.318,177.662,1681.15,184.51z"
		/>
	<path fill="#FFFDFD" d="M1690.228,187.422c0.525,3.282,0.491,6.574-0.053,9.632c-0.54,3.034-1.913,5.88-3.496,8.758
		c-1.599,2.865-3.436,5.71-5.245,8.658c-1.789,2.961-3.587,6.019-4.991,9.397c-0.669,1.706-1.312,3.447-1.686,5.309
		c-0.194,0.928-0.383,1.854-0.434,2.825c-0.032,0.476-0.093,0.966-0.097,1.425l0.009,1.366c0.203,7.266,2.353,14.268,6.14,20.133
		c-0.838-3.377-1.45-6.731-1.766-10.081c-0.343-3.339-0.388-6.668-0.057-9.896c0.491-6.234,4.053-11.786,7.571-17.618
		c1.763-2.92,3.6-5.89,5.171-9.125c0.399-0.8,0.771-1.627,1.115-2.478c0.377-0.824,0.656-1.719,0.951-2.598
		c0.315-0.864,0.491-1.823,0.724-2.728c0.146-0.937,0.302-1.884,0.363-2.822c0.233-3.772-0.434-7.436-1.617-10.804
		c-1.218-3.36-2.868-6.519-5.067-9.238C1688.894,180.825,1689.796,184.114,1690.228,187.422z"/>
	<g>
		<path fill="#FFFDFD" d="M1623.269,664.088c-8.593,7.465-18.156,13.156-28.692,17.075c-10.536,3.919-21.575,5.879-33.113,5.879
			c-8.843,0-16.996-1.239-24.459-3.715c-7.464-2.478-14.143-6.13-20.038-10.959c-7.902-6.459-13.798-13.955-17.686-22.484
			c-3.889-8.528-5.832-18.251-5.832-29.163c0-9.407,1.959-18.454,5.879-27.14c3.919-8.686,9.391-16.071,16.415-22.154
			c6.146-5.268,13.107-9.249,20.884-11.947c7.776-2.695,16.181-4.046,25.212-4.046c11.539,0,21.59,2.306,30.151,6.915
			c8.561,4.609,15.976,11.745,22.248,21.401l-15.993,11.759c-3.826-8.151-8.498-14.266-14.017-18.343
			c-5.519-4.076-11.822-6.116-18.909-6.116c-10.85,0-19.254,4.375-25.212,13.124c-5.959,8.748-8.937,21.119-8.937,37.112
			c0,14.55,3.354,26.356,10.066,35.419c6.71,9.063,15.428,13.593,26.152,13.593c4.013,0,7.776-0.611,11.289-1.834
			c3.511-1.223,6.929-3.058,10.254-5.503V627.87h34.337V664.088z"/>
		<path fill="#FFFDFD" d="M1627.692,683.938l43.18-125.776h34.054l46.096,125.776h-37.441l-13.265-37.159h-42.239l-12.511,37.159
			H1627.692z M1663.533,630.787h31.044l-16.274-45.062L1663.533,630.787z"/>
		<path fill="#FFFDFD" d="M1765.603,683.938V558.161h32.926l28.315,67.827l28.129-67.827h34.524v125.776h-35.09v-82.691
			l-33.96,82.691h-3.386l-33.208-79.022v79.022H1765.603z"/>
		<path fill="#FFFDFD" d="M1938.133,683.938v-59.548l-36.783-66.228h39.135l24.458,48.165l26.436-48.165h18.25l-35.843,64.346v61.43
			H1938.133z"/>
		<path fill="#FFFDFD" d="M2030.983,651.952c2.571,6.084,5.786,10.757,9.643,14.017c3.857,3.262,8.105,4.892,12.748,4.892
			c4.766,0,8.686-1.412,11.759-4.234c3.072-2.822,4.609-6.364,4.609-10.63c0-3.449-1.161-6.569-3.481-9.361
			c-2.32-2.789-6.115-5.628-11.382-8.514l-4.986-2.727c-11.415-6.083-18.283-10.128-20.602-12.135
			c-4.767-4.139-8.137-8.263-10.114-12.371c-1.975-4.107-2.963-8.921-2.963-14.44c0-12.103,4.06-21.997,12.183-29.681
			c8.121-7.681,18.705-11.523,31.75-11.523c9.156,0,17.183,2.086,24.083,6.255c6.898,4.171,12.292,10.175,16.181,18.015
			l-14.299,9.972c-2.51-6.021-5.692-10.537-9.549-13.547c-3.856-3.01-8.451-4.516-13.781-4.516c-4.453,0-8.137,1.381-11.053,4.139
			c-2.917,2.761-4.375,6.209-4.375,10.348c0,3.514,1.207,6.586,3.621,9.22c2.414,2.634,7.07,5.707,13.97,9.219l2.352,1.223
			c12.855,6.398,20.602,10.694,23.236,12.889c4.641,3.825,7.981,7.854,10.019,12.088c2.037,4.234,3.058,9.172,3.058,14.817
			c0,12.356-4.313,22.422-12.935,30.197c-8.624,7.777-19.836,11.665-33.632,11.665c-9.847,0-18.548-2.164-26.105-6.491
			c-7.558-4.327-13.311-10.442-17.263-18.343L2030.983,651.952z M2037.568,724.013v-9.407c4.891,1.129,9.391,2.022,13.5,2.68
			c4.106,0.66,7.384,0.989,9.831,0.989c3.763,0,6.553-0.644,8.372-1.929c1.819-1.286,2.729-3.214,2.729-5.785
			c0-2.761-1.004-4.798-3.01-6.115c-2.009-1.317-5.174-1.975-9.502-1.975c-1.255,0-2.243,0.014-2.963,0.046
			c-0.722,0.031-1.396,0.047-2.023,0.047v-18.626h7.338v9.595h2.727c6.836,0,12.042,1.442,15.617,4.327
			c3.574,2.884,5.361,7.118,5.361,12.7c0,5.706-2.038,10.081-6.115,13.123c-4.077,3.041-9.941,4.563-17.591,4.563
			c-3.137,0-6.773-0.362-10.912-1.082C2046.787,726.443,2042.334,725.391,2037.568,724.013z"/>
	</g>
	<g>
		<path fill="#FFFDFD" d="M2048.633,881.013h-500.208c-72.385,0-131.274-58.889-131.274-131.274V250.262
			c0-72.385,58.889-131.275,131.274-131.275h500.208c72.385,0,131.274,58.89,131.274,131.275v499.476
			C2179.907,822.124,2121.018,881.013,2048.633,881.013z M1548.425,130.228c-66.187,0-120.033,53.848-120.033,120.034v499.476
			c0,66.187,53.847,120.033,120.033,120.033h500.208c66.187,0,120.033-53.847,120.033-120.033V250.262
			c0-66.187-53.847-120.034-120.033-120.034H1548.425z"/>
	</g>
	<path fill="#FFFDFD" d="M1474.713,800.111c3.036-1.878,6.142-3.651,9.28-5.36c3.133-1.724,6.312-3.36,9.502-4.983
		c6.4-3.197,12.88-6.263,19.462-9.1c13.149-5.718,26.61-10.786,40.327-15.165c27.42-8.781,55.894-14.834,84.926-17.369l5.447-0.446
		c1.816-0.146,3.64-0.207,5.461-0.314l5.467-0.287c1.824-0.076,3.652-0.091,5.479-0.139l5.484-0.105
		c1.829,0.002,3.659,0.051,5.49,0.075l5.494,0.091c1.831,0.068,3.662,0.177,5.495,0.264l5.498,0.279
		c1.831,0.131,3.661,0.307,5.493,0.459l5.495,0.483c1.81,0.193,3.578,0.432,5.369,0.646l10.717,1.32l5.36,0.661l5.342,0.787
		c7.12,1.064,14.257,2.068,21.329,3.398l10.631,1.889c3.541,0.64,7.057,1.383,10.587,2.07c3.524,0.704,7.058,1.397,10.561,2.177
		l10.51,2.337c3.511,0.763,6.995,1.584,10.477,2.409l10.45,2.465l41.352,10.325c3.43,0.888,6.837,1.664,10.256,2.503l5.125,1.236
		c1.709,0.418,3.413,0.766,5.12,1.153c3.413,0.747,6.826,1.529,10.239,2.25c3.415,0.655,6.824,1.339,10.234,2.029l2.558,0.515
		l2.561,0.434l5.123,0.859l5.125,0.861c1.708,0.296,3.422,0.46,5.134,0.698l10.276,1.314l10.301,0.947l2.578,0.238
		c0.859,0.091,1.721,0.092,2.581,0.143l5.167,0.235l5.17,0.238c0.863,0.031,1.723,0.1,2.588,0.1l2.594,0.007l10.389,0.054
		c1.73,0.041,3.474-0.058,5.214-0.113l5.224-0.185c27.895-0.925,55.977-4.293,83.996-8.235c28.035-4.023,56.023-8.928,84.049-14.272
		c-13.344,5.083-26.928,9.503-40.595,13.662c-13.664,4.187-27.479,7.867-41.373,11.331c-27.828,6.729-56.054,12.258-84.947,14.95
		l-5.42,0.492c-1.808,0.157-3.61,0.358-5.436,0.418l-10.935,0.549l-2.737,0.13c-0.912,0.039-1.829,0.008-2.744,0.015l-5.492-0.013
		l-5.496-0.016c-0.916-0.014-1.834,0.02-2.748-0.035l-2.742-0.132l-10.978-0.535c-1.829-0.104-3.643-0.317-5.464-0.484l-5.461-0.532
		c-1.817-0.195-3.65-0.319-5.455-0.572l-5.42-0.736l-5.422-0.738l-2.71-0.375l-2.686-0.453c-3.582-0.602-7.164-1.208-10.742-1.845
		c-3.557-0.682-7.09-1.42-10.637-2.129c-1.767-0.366-3.554-0.698-5.306-1.092l-5.266-1.166c-3.502-0.789-7.042-1.529-10.512-2.359
		c-6.965-1.651-13.917-3.334-20.814-5.034l-20.679-5.05c-13.732-3.347-27.445-6.634-41.198-9.517
		c-3.436-0.734-6.865-1.527-10.308-2.215l-10.335-2.034c-3.445-0.679-6.888-1.379-10.351-1.946
		c-3.46-0.589-6.911-1.231-10.368-1.846l-5.185-0.928l-5.204-0.804l-10.412-1.609c-1.732-0.261-3.48-0.553-5.199-0.789l-5.109-0.654
		c-1.704-0.215-3.406-0.456-5.114-0.652l-5.14-0.48c-1.714-0.155-3.427-0.333-5.145-0.471l-5.164-0.305
		c-1.722-0.096-3.444-0.218-5.168-0.295l-5.181-0.157c-1.728-0.049-3.456-0.133-5.186-0.155l-5.194-0.011
		c-1.732,0.007-3.465-0.033-5.199,0.012l-5.203,0.141c-27.768,0.76-55.62,4.543-83.126,10.482
		c-13.771,2.924-27.439,6.484-41.027,10.458c-6.79,2.001-13.552,4.132-20.28,6.398l-5.044,1.716l-5.025,1.783
		C1481.368,797.559,1478.026,798.789,1474.713,800.111z"/>
</g>
<g>
	<polygon fill="#440C0C" points="2989.807,264.3 2989.807,271.97 2970.312,262.266 2931.848,269.937 2931.848,262.717 
		2970.971,254.925 	"/>
	<g>
		<rect x="3208.458" y="459.803" fill="#440C0C" width="27.607" height="27.607"/>
		<rect x="3240.956" y="459.803" fill="#440C0C" width="27.607" height="27.607"/>
		<rect x="3208.458" y="426.435" fill="#440C0C" width="27.607" height="27.607"/>
		<rect x="3240.956" y="426.435" fill="#440C0C" width="27.607" height="27.607"/>
	</g>
	<polygon fill="#440C0C" points="3247.186,333.897 3238.076,322.611 3223.141,329.864 3213.821,334.392 3176.709,294.554 
		3145.268,260.827 3137.553,252.541 3124.068,238.067 3103.265,247.496 2987.06,300.159 2987.06,332.524 2970.103,340.216 
		2970.103,269.981 2936.628,276.652 2936.628,318.16 2889.647,339.447 2883.46,347.118 2883.449,347.129 2842.183,398.187 
		2771.002,486.27 2778.673,499.688 2929.606,499.688 3121.53,271.586 3123.519,269.223 3124.475,270.245 3162.972,311.555 
		3193.458,344.283 3099.759,389.791 3021.436,486.72 3028.843,499.688 3113.211,499.688 3217.734,370.339 3231.471,353.338 
		3236.79,346.766 3360.358,499.688 3381.162,499.688 	"/>
	<path fill="#440C0C" d="M2958.703,184.51c-0.093,3.494-0.562,6.769-1.772,9.792c-1.176,3.04-3.053,5.822-5.193,8.727
		c-2.099,2.912-4.395,6.039-6.022,9.666c-1.648,3.608-2.498,7.628-2.482,11.51c-0.02,3.803,0.346,7.505,1.103,11.218
		c0.451,1.838,0.942,3.674,1.759,5.404c0.432,0.856,0.872,1.701,1.455,2.464c0.586,0.739,1.249,1.488,2.118,1.849
		c-0.678-0.623-1.078-1.44-1.396-2.261c-0.339-0.812-0.545-1.68-0.732-2.535c-0.339-1.731-0.484-3.5-0.528-5.267
		c-0.115-3.521,0.143-7.137,0.533-10.602c0.388-3.392,1.326-6.587,2.872-9.534c1.521-2.964,3.602-5.72,5.774-8.698
		c1.072-1.494,2.155-3.073,3.153-4.744c0.948-1.716,1.866-3.5,2.475-5.427c1.304-3.835,1.529-7.944,1.187-11.716
		c-0.323-3.841-1.341-7.619-2.929-11.082c-1.703-3.397-3.907-6.599-6.931-8.782C2957.346,170.553,2958.871,177.662,2958.703,184.51z
		"/>
	<path fill="#440C0C" d="M2967.782,187.422c0.525,3.282,0.491,6.574-0.053,9.632c-0.54,3.034-1.913,5.88-3.496,8.758
		c-1.599,2.865-3.436,5.71-5.245,8.658c-1.789,2.961-3.587,6.019-4.991,9.397c-0.669,1.706-1.312,3.447-1.686,5.309
		c-0.194,0.928-0.383,1.854-0.434,2.825c-0.032,0.476-0.093,0.966-0.097,1.425l0.009,1.366c0.203,7.266,2.352,14.268,6.14,20.133
		c-0.838-3.377-1.45-6.731-1.765-10.081c-0.343-3.339-0.388-6.668-0.057-9.896c0.491-6.234,4.053-11.786,7.571-17.618
		c1.763-2.92,3.6-5.89,5.171-9.125c0.399-0.8,0.771-1.627,1.115-2.478c0.377-0.824,0.656-1.719,0.951-2.598
		c0.315-0.864,0.491-1.823,0.724-2.728c0.146-0.937,0.302-1.884,0.363-2.822c0.232-3.772-0.435-7.436-1.617-10.804
		c-1.218-3.36-2.868-6.519-5.067-9.238C2966.447,180.825,2967.349,184.114,2967.782,187.422z"/>
	<g>
		<path fill="#440C0C" d="M2900.823,664.088c-8.593,7.465-18.156,13.156-28.692,17.075c-10.536,3.919-21.575,5.879-33.114,5.879
			c-8.843,0-16.996-1.239-24.459-3.715c-7.464-2.478-14.143-6.13-20.038-10.959c-7.902-6.459-13.798-13.955-17.686-22.484
			c-3.889-8.528-5.832-18.251-5.832-29.163c0-9.407,1.959-18.454,5.879-27.14c3.919-8.686,9.391-16.071,16.416-22.154
			c6.146-5.268,13.107-9.249,20.884-11.947c7.776-2.695,16.181-4.046,25.212-4.046c11.538,0,21.59,2.306,30.151,6.915
			c8.561,4.609,15.976,11.745,22.248,21.401l-15.993,11.759c-3.826-8.151-8.498-14.266-14.017-18.343
			c-5.519-4.076-11.822-6.116-18.909-6.116c-10.85,0-19.254,4.375-25.212,13.124c-5.959,8.748-8.937,21.119-8.937,37.112
			c0,14.55,3.354,26.356,10.066,35.419c6.71,9.063,15.428,13.593,26.152,13.593c4.013,0,7.776-0.611,11.289-1.834
			c3.511-1.223,6.929-3.058,10.253-5.503V627.87h34.337V664.088z"/>
		<path fill="#440C0C" d="M2905.245,683.938l43.18-125.776h34.054l46.096,125.776h-37.441l-13.265-37.159h-42.239l-12.511,37.159
			H2905.245z M2941.087,630.787h31.044l-16.274-45.062L2941.087,630.787z"/>
		<path fill="#440C0C" d="M3043.156,683.938V558.161h32.926l28.315,67.827l28.129-67.827h34.524v125.776h-35.09v-82.691
			L3098,683.938h-3.386l-33.208-79.022v79.022H3043.156z"/>
		<path fill="#440C0C" d="M3215.687,683.938v-59.548l-36.783-66.228h39.135l24.458,48.165l26.436-48.165h18.25l-35.843,64.346v61.43
			H3215.687z"/>
		<path fill="#440C0C" d="M3308.536,651.952c2.571,6.084,5.786,10.757,9.643,14.017c3.857,3.262,8.105,4.892,12.748,4.892
			c4.766,0,8.686-1.412,11.759-4.234c3.072-2.822,4.609-6.364,4.609-10.63c0-3.449-1.161-6.569-3.481-9.361
			c-2.32-2.789-6.115-5.628-11.382-8.514l-4.986-2.727c-11.416-6.083-18.283-10.128-20.602-12.135
			c-4.767-4.139-8.137-8.263-10.114-12.371c-1.975-4.107-2.963-8.921-2.963-14.44c0-12.103,4.06-21.997,12.183-29.681
			c8.121-7.681,18.705-11.523,31.75-11.523c9.156,0,17.183,2.086,24.083,6.255c6.898,4.171,12.292,10.175,16.181,18.015
			l-14.299,9.972c-2.51-6.021-5.692-10.537-9.549-13.547c-3.856-3.01-8.451-4.516-13.781-4.516c-4.453,0-8.137,1.381-11.053,4.139
			c-2.917,2.761-4.375,6.209-4.375,10.348c0,3.514,1.207,6.586,3.621,9.22c2.414,2.634,7.07,5.707,13.97,9.219l2.352,1.223
			c12.855,6.398,20.602,10.694,23.236,12.889c4.641,3.825,7.981,7.854,10.019,12.088c2.037,4.234,3.058,9.172,3.058,14.817
			c0,12.356-4.313,22.422-12.935,30.197c-8.624,7.777-19.836,11.665-33.632,11.665c-9.847,0-18.548-2.164-26.105-6.491
			c-7.558-4.327-13.312-10.442-17.263-18.343L3308.536,651.952z M3315.122,724.013v-9.407c4.891,1.129,9.391,2.022,13.5,2.68
			c4.106,0.66,7.384,0.989,9.831,0.989c3.763,0,6.553-0.644,8.372-1.929c1.819-1.286,2.729-3.214,2.729-5.785
			c0-2.761-1.004-4.798-3.01-6.115c-2.009-1.317-5.174-1.975-9.502-1.975c-1.255,0-2.243,0.014-2.963,0.046
			c-0.722,0.031-1.396,0.047-2.023,0.047v-18.626h7.338v9.595h2.727c6.836,0,12.042,1.442,15.617,4.327
			c3.574,2.884,5.361,7.118,5.361,12.7c0,5.706-2.038,10.081-6.115,13.123c-4.077,3.041-9.941,4.563-17.591,4.563
			c-3.137,0-6.773-0.362-10.912-1.082C3324.341,726.443,3319.888,725.391,3315.122,724.013z"/>
	</g>
	<g>
		<path fill="#440C0C" d="M3326.186,881.013h-500.208c-72.385,0-131.274-58.889-131.274-131.274V250.262
			c0-72.385,58.889-131.275,131.274-131.275h500.208c72.385,0,131.274,58.89,131.274,131.275v499.476
			C3457.46,822.124,3398.572,881.013,3326.186,881.013z M2825.978,130.228c-66.187,0-120.033,53.848-120.033,120.034v499.476
			c0,66.187,53.846,120.033,120.033,120.033h500.208c66.187,0,120.033-53.847,120.033-120.033V250.262
			c0-66.187-53.847-120.034-120.033-120.034H2825.978z"/>
	</g>
	<path fill="#440C0C" d="M2752.267,800.111c3.036-1.878,6.142-3.651,9.28-5.36c3.133-1.724,6.312-3.36,9.501-4.983
		c6.4-3.197,12.88-6.263,19.462-9.1c13.149-5.718,26.61-10.786,40.327-15.165c27.42-8.781,55.894-14.834,84.926-17.369l5.447-0.446
		c1.817-0.146,3.64-0.207,5.461-0.314l5.467-0.287c1.824-0.076,3.652-0.091,5.479-0.139l5.484-0.105
		c1.829,0.002,3.659,0.051,5.49,0.075l5.494,0.091c1.831,0.068,3.663,0.177,5.495,0.264l5.498,0.279
		c1.832,0.131,3.661,0.307,5.493,0.459l5.495,0.483c1.81,0.193,3.578,0.432,5.369,0.646l10.717,1.32l5.36,0.661l5.342,0.787
		c7.119,1.064,14.257,2.068,21.329,3.398l10.631,1.889c3.542,0.64,7.057,1.383,10.587,2.07c3.524,0.704,7.058,1.397,10.561,2.177
		l10.51,2.337c3.511,0.763,6.995,1.584,10.477,2.409l10.45,2.465l41.352,10.325c3.43,0.888,6.837,1.664,10.256,2.503l5.126,1.236
		c1.709,0.418,3.413,0.766,5.12,1.153c3.413,0.747,6.826,1.529,10.239,2.25c3.415,0.655,6.824,1.339,10.234,2.029l2.558,0.515
		l2.561,0.434l5.123,0.859l5.125,0.861c1.708,0.296,3.422,0.46,5.133,0.698l10.276,1.314l10.301,0.947l2.577,0.238
		c0.859,0.091,1.721,0.092,2.581,0.143l5.167,0.235l5.17,0.238c0.862,0.031,1.723,0.1,2.588,0.1l2.594,0.007l10.389,0.054
		c1.73,0.041,3.474-0.058,5.214-0.113l5.224-0.185c27.895-0.925,55.977-4.293,83.996-8.235c28.035-4.023,56.023-8.928,84.049-14.272
		c-13.344,5.083-26.928,9.503-40.595,13.662c-13.664,4.187-27.479,7.867-41.373,11.331c-27.828,6.729-56.054,12.258-84.947,14.95
		l-5.42,0.492c-1.809,0.157-3.61,0.358-5.436,0.418l-10.936,0.549l-2.737,0.13c-0.913,0.039-1.829,0.008-2.743,0.015l-5.492-0.013
		l-5.496-0.016c-0.916-0.014-1.834,0.02-2.748-0.035l-2.742-0.132l-10.978-0.535c-1.829-0.104-3.643-0.317-5.464-0.484l-5.461-0.532
		c-1.817-0.195-3.65-0.319-5.455-0.572l-5.42-0.736l-5.422-0.738l-2.71-0.375l-2.686-0.453c-3.582-0.602-7.164-1.208-10.742-1.845
		c-3.557-0.682-7.09-1.42-10.636-2.129c-1.768-0.366-3.554-0.698-5.306-1.092l-5.266-1.166c-3.501-0.789-7.042-1.529-10.512-2.359
		c-6.965-1.651-13.917-3.334-20.814-5.034l-20.679-5.05c-13.732-3.347-27.445-6.634-41.198-9.517
		c-3.436-0.734-6.865-1.527-10.308-2.215l-10.335-2.034c-3.445-0.679-6.888-1.379-10.351-1.946
		c-3.46-0.589-6.912-1.231-10.368-1.846l-5.185-0.928l-5.204-0.804l-10.412-1.609c-1.732-0.261-3.48-0.553-5.198-0.789l-5.11-0.654
		c-1.704-0.215-3.406-0.456-5.114-0.652l-5.14-0.48c-1.715-0.155-3.427-0.333-5.145-0.471l-5.164-0.305
		c-1.722-0.096-3.444-0.218-5.168-0.295l-5.181-0.157c-1.728-0.049-3.456-0.133-5.186-0.155l-5.194-0.011
		c-1.732,0.007-3.465-0.033-5.199,0.012l-5.202,0.141c-27.768,0.76-55.62,4.543-83.126,10.482
		c-13.771,2.924-27.439,6.484-41.027,10.458c-6.79,2.001-13.552,4.132-20.28,6.398l-5.044,1.716l-5.025,1.783
		C2758.921,797.559,2755.58,798.789,2752.267,800.111z"/>
</g>
<g>
	<rect x="357.954" y="-93.063" fill="#440C0C" width="47.523" height="47.523"/>
	<rect x="423.115" y="-89.002" fill="#FF6010" width="47.523" height="47.523"/>
</g>
</svg>
